<?xml version="1.0" standalone="no"?>
<!DOCTYPE svg PUBLIC "-//W3C//DTD SVG 20010904//EN"
 "http://www.w3.org/TR/2001/REC-SVG-20010904/DTD/svg10.dtd">
<svg version="1.0" xmlns="http://www.w3.org/2000/svg"
 width="237.000000pt" height="190.000000pt" viewBox="0 0 237.000000 190.000000"
 preserveAspectRatio="xMidYMid meet">

<g transform="translate(0.000000,190.000000) scale(0.100000,-0.100000)"
fill="white" stroke="none">
<path d="M1059 1890 c-250 -24 -481 -105 -666 -232 -94 -65 -219 -196 -271
-284 -162 -271 -162 -608 -1 -882 33 -55 206 -242 225 -242 26 1 32 16 23 64
-34 181 117 494 361 749 336 352 854 583 951 423 27 -45 25 -144 -5 -237 -13
-41 -22 -76 -20 -78 9 -10 35 26 73 102 71 139 87 237 52 312 -31 69 -78 96
-195 115 -62 10 -156 2 -293 -25 -15 -3 -3 4 27 16 99 37 227 59 353 59 93 0
117 3 117 14 0 16 -3 17 -119 57 -175 60 -420 88 -612 69z"/>
<path d="M1997 1644 c-4 -4 -4 -39 0 -78 14 -173 -97 -419 -299 -662 -317
-380 -922 -669 -1019 -487 -21 40 -16 166 10 237 23 65 25 76 13 76 -5 0 -27
-33 -50 -72 -132 -232 -112 -393 56 -445 70 -22 206 -22 307 0 38 9 71 14 73
12 7 -7 -161 -54 -228 -65 -36 -5 -116 -10 -177 -10 -138 0 -149 -14 -41 -55
453 -167 1004 -98 1361 171 297 224 423 574 332 925 -41 155 -141 313 -264
415 -54 45 -63 49 -74 38z"/>
<path d="M1316 1247 c-63 -23 -85 -47 -44 -47 26 0 88 -35 88 -49 0 -5 -14 -3
-31 6 -28 14 -37 14 -95 -2 -121 -33 -243 -131 -317 -257 -117 -197 -67 -306
113 -248 74 24 111 50 71 50 -27 0 -73 23 -92 46 -13 16 -12 16 10 5 36 -20
120 -9 184 23 111 56 216 165 274 284 34 68 39 160 11 188 -26 27 -104 27
-172 1z"/>
</g>
</svg>
