<?xml version="1.0" encoding="UTF-8"?>
<svg id="Layer_1" xmlns="http://www.w3.org/2000/svg" version="1.1" viewBox="0 0 654.6 809.9">
  <!-- Generator: Adobe Illustrator 29.3.1, SVG Export Plug-In . SVG Version: 2.1.0 Build 151)  -->
  <defs>
    <style>
      .st0 {
        fill: #f5f6fa;
      }

      .st1 {
        fill: #6319bf;
      }
    </style>
  </defs>
  <path class="st0" d="M630.4,347c3,23-3.8,76.5-8.8,95.8-6.9,26.6-17.4,52.1-31.3,75.8-9.4,16-20.1,31.1-32,45.3-6.4,7.7-13.8,14.5-20.8,21.7-1.4,1.4-2.3,1.3-3.7,0-14.2-14.3-28.4-28.5-42.6-42.6-2.3-2.3-1-3.6.7-5.2,14-13.5,26.3-28.5,36.7-44.9,25.7-40.9,38.4-88.5,36.4-136.8-.8-18.5-3.8-36.8-8.8-54.5-4.1-14.6-9.6-28.8-16.4-42.3-8.3-16.3-18.5-31.5-30.2-45.5-18-21.6-39.7-39.8-64-53.8-22.3-12.9-46.5-21.9-71.8-26.7-18.6-3.5-37.4-5-56.3-4.5-2.8,0-5.4,1-8.2.9-2.6-.1-3.6-1.1-3.5-3.7.5-13.8,2.7-27.3,8.6-40,3.4-7.4,7.4-14.6,12-21.3.9-1.5,2.6-2.4,4.3-2.3,14.3.2,28.6,1.4,42.8,3.6,18.9,2.8,37.5,7.4,55.5,13.8,17.7,6.3,34.8,14.2,51,23.7,16.1,9.2,31.2,20,45.2,32.1,24.2,20.9,45,45.4,61.8,72.7,9.4,15.4,17.5,31.6,24,48.4,6.4,16.4,11.3,33.4,14.7,50.7,1.9,9.9,3.4,19.9,4.3,30"/>
  <path class="st1" d="M463.7,458.5c-7.6-38-22.2-73.3-40.8-107.1-23.6-42.8-52.4-82-83.2-119.8-15.3-18.9-29.4-38.5-38.8-61.1-13.4-32-14.1-63.6,3.3-94.5,4.9-8.7,10.7-16.6,16.9-24.3s5.7-1.3,6.1,1.7c4.6,34.9-31.8,104,9.4,105.5,35-4.5-.2-63.3,7.6-141h0c1-7.1-2.9-13.3-10.3-16.1-6.3-2.4-12.7-2.3-19.2-.8-13.6,3.3-25.5,10-36,18.9-64,54.1-89.7,123.5-80.1,206.2,3.8,32.6,15.1,63,30.1,92.1,9.7,18.5,17.5,37.8,23.4,57.8,8.9,30.2,12.4,60.9,9.3,92.3-2.9,29-11.8,56.3-24.9,82.3-11.6,22.9-25.9,43.6-45.4,60.4-6.3,5.4-13.1,10.3-20.2,14.5.3.4.4.6.6.7,36.5,22.2,77.4,36.3,119.9,41.5,6.5.8,13.1.7,19.6,2.2h36.2c5.8-1.5,11.8-1.3,17.7-2.1,20.8-2.7,41.3-7.3,61.2-13.9,2.9-.9,5.4-2.7,7.2-5.1,6-7.9,11-16.5,15-25.6,10.6-23.2,15.3-47.9,18.6-72.9,4-30.6,2.9-61.6-3.2-91.8ZM403,386.2c0,14.3-11.5,25.9-25.8,26h-.2c-14.4,0-26-11.6-26-26s11.6-26,26-26,26,11.6,26,26ZM349.7,293.2c12.8.1,23.2,10.6,23.1,23.5,0,12.8-10.6,23.2-23.5,23.1h0c-12.8,0-23.1-10.5-23.1-23.3v-.2c0-12.8,10.6-23.2,23.5-23.1ZM321.3,368.5h.2c14.4.2,25.9,11.9,25.7,26.3-.2,14.3-11.8,25.7-26.1,25.7-14.3-.1-25.9-11.7-25.9-26.1,0-14.3,11.7-25.9,26.1-25.9ZM277.2,328.4c0-12.9,10.6-23.2,23.5-23.2,12.9,0,23.2,10.6,23.2,23.5-.2,12.9-10.8,23.3-23.7,23.2-12.8-.2-23-10.7-23-23.5ZM335.9,257c0,11.7-9.5,21-21.2,21h0c-11.6-.1-21-9.6-21-21.2.1-11.7,9.5-21.1,21.2-21s21,9.5,21,21.2ZM304.9,206.8c-.2,10.3-9.4,18.6-20.3,18.4h-.1c-10.9-.1-19.6-9.1-19.5-20,.3-10.3,9.4-18.6,20.3-18.4h.1c10.9.1,19.6,9.1,19.5,20ZM250,156.1c0-9.5,8-17.5,17.9-17.5,10,0,18.1,7.7,18.2,17.2,0,9.5-8,17.5-17.9,17.5s-18.1-7.7-18.2-17.2ZM296.4,30.8c6,.1,10.8,4.7,10.8,10.3s-5.1,10.2-11,10.1c-5.9-.1-10.8-4.7-10.8-10.3s5-10.2,11-10.1ZM270.4,56.4h0c7.4,0,13.5,5.9,13.4,12.9-.1,7-6.2,12.7-13.7,12.7s-13.6-5.9-13.5-12.9,6.3-12.7,13.7-12.7ZM249.6,91.9c8.7.2,15.6,7.5,15.4,16.2h.1c-.2,8.6-7.2,15.4-15.8,15.4h-.5c-8.7-.2-15.6-7.5-15.4-16.2s7.5-15.6,16.2-15.4ZM211.6,159c0-9.6,8.1-17.4,18-17.4s18,7.8,18.1,17.3c0,9.5-8.1,17.4-18,17.4h0c-10,0-18.2-7.7-18.2-17.3ZM222.9,215.3c0-10.4,9.1-18.7,20-18.7h0c10.9,0,19.8,8.7,19.9,19.3.1,10.6-8.9,19.1-20,19.1s-20-8.9-19.9-19.7ZM251.5,274.1c0-11.7,9.5-21,21.2-21h0c11.6.2,21,9.6,21,21.2,0,11.7-9.5,21-21.2,21-11.7,0-21.1-9.5-21-21.2ZM309.5,599.1c-18.7,0-33.9-15.2-33.9-33.9s15.2-33.9,33.9-33.9h0c18.8.1,33.9,15.3,33.9,34s-15.2,33.8-33.9,33.8ZM329.3,502.6h0c-16-.2-28.8-13.2-28.8-29.2.1-16,13.2-28.9,29.2-28.8,16,.1,28.9,13.2,28.8,29.2,0,16-13.2,28.9-29.2,28.8ZM382.6,599.1h0c-18.8,0-33.9-15.3-33.9-34s15.2-33.8,33.9-33.8,33.9,15.2,33.9,33.9-15.2,33.9-33.9,33.9ZM390.9,500.2c-16,0-28.8-13.3-28.6-29.3,0-16,13.3-28.8,29.3-28.6,15.9.2,28.7,13.3,28.6,29.3,0,16-13.3,28.8-29.3,28.6Z"/>
  <path class="st0" d="M25.4,399c-9-53,9.5-119.5,20.6-147,10.7-26.4,25.1-51.1,42.8-73.4,10.5-13.3,22-25.7,34.5-37.1,17-15.7,35.9-29.3,56.1-40.5,7.1-3.9,14.5-7.4,21.8-11.2,1.4-.7,2.9-1.2,5.3-2.1-3,6.4-5.6,11.8-8,17.4-7,16.2-12,33.2-14.9,50.6-1,6.3-2.2,12.5-2.2,18.9s-3.1,7.1-6.2,9.6c-10.7,8.8-20.6,18.7-29.5,29.4-9.2,10.9-17.5,22.6-24.6,34.9-10.9,19-19.1,39.5-24.2,60.9-3.2,13.5-5.3,27.2-6.2,41-.7,8.7-.8,17.5-.4,26.3.8,18.2,3.7,36.3,8.6,53.8,4.1,14.9,9.7,29.3,16.7,43,8.2,16.1,18.2,31.1,29.8,44.9,6.4,7.5,13.2,14.8,20.3,21.6,2.1,2,1.8,3.2-.1,5.1-13.8,13.7-27.6,27.5-41.3,41.3-2.2,2.2-3.5,2.3-5.8,0-40-37.8-68.9-85.9-83.7-138.9-4.5-16.2-7.2-32.6-9.6-49.1"/>
  <path class="st0" d="M302.2,40.6c-.3,3.2-3.1,5.6-6.3,5.3-2.9-.2-5.2-2.6-5.4-5.4.3-3.2,3.1-5.6,6.3-5.3,2.9.2,5.2,2.6,5.4,5.4Z"/>
  <path class="st0" d="M382.4,588.5c-14.1,0-23.1-9.8-23.1-25s10.4-21.7,25.3-21.7,21.4,10.6,21.4,25.6-10.6,21.1-23.6,21.1h0Z"/>
  <path class="st0" d="M332.9,565.5c0,14.1-9.7,23-25.1,23s-21.6-10.5-21.6-25.4,10.7-21.2,25.7-21.5c9.1-.2,22.8,11.1,21,23.8h0Z"/>
  <path class="st0" d="M329.8,454.4c11.4,0,19,7.9,19,19.9s-8,18.6-20.2,18.6-18.2-8.2-18.2-20.2,8.2-18.2,19.4-18.2h0Z"/>
  <path class="st0" d="M391.6,452.1c11.5,0,19,7.9,19,19.8s-8,18.6-20.2,18.6-18.2-8.1-18.2-20.2,8.2-18.2,19.4-18.2h0Z"/>
  <path class="st0" d="M321.1,411.4c-10.5,0-16.9-6.6-16.9-17.5s6.8-16.4,17.6-16.4,16.3,6.9,16.3,17.7-6.9,16.2-17.1,16.2h.1Z"/>
  <path class="st0" d="M360.1,386c0-9.9,7.1-17.2,17.2-17.3,8.5,0,17.7,7.7,16.9,18.1-.8,10-7,16.3-17.9,16.3s-16.2-6.9-16.2-17.1Z"/>
  <path class="st0" d="M363.9,316.6c1.1,7-6.6,14.8-14.4,14.3-8.7-.6-14.3-5.8-14.3-14.8s5.8-14,14.6-14,14.1,5.8,14.1,14.5h0Z"/>
  <path class="st0" d="M300.7,314.2c7-1.1,14.8,6.6,14.3,14.4-.6,8.7-5.8,14.3-14.8,14.3s-14-5.8-14-14.6,5.8-14.1,14.5-14.1h0Z"/>
  <path class="st0" d="M314.5,269.7c-7.7,0-12.5-5-12.5-13.1s5-12.5,13.1-12.5,12.5,5,12.5,13.1-5,12.5-13.1,12.5Z"/>
  <path class="st0" d="M272.4,287c-7.8,0-12.6-5-12.6-13s5-12.6,13-12.6,12.6,5,12.6,13-5,12.7-13,12.6Z"/>
  <path class="st0" d="M285.1,217c-7.1,0-11.7-4.4-11.7-11.1s4.4-10.8,11.9-10.8,11.5,4.5,11.5,11.2-4.5,10.6-11.7,10.6h0Z"/>
  <path class="st0" d="M243.1,226.8c-7.4,0-12-4.2-12-11.2s4.5-10.7,11.6-10.7,11.8,4.3,11.8,11-4.4,10.9-11.4,10.9h0Z"/>
  <path class="st0" d="M278.7,156c0,5.9-4.2,9.8-10.8,9.7-6.2,0-10.3-4-10.3-9.9s4.2-9.8,10.8-9.7c6.2,0,10.3,4,10.3,9.9Z"/>
  <path class="st0" d="M229.9,149.1c6.2,0,10.3,4,10.3,9.8s-4.2,9.8-10.8,9.8-10.4-4-10.3-10.2c0-5.7,4.4-9.4,10.8-9.4h0Z"/>
  <path class="st0" d="M249.1,116c-5.3,0-8.1-2.8-8.1-8s2.8-7.9,8.6-7.8c5.2,0,8,2.9,8,8.2-.1,5-3,7.7-8.5,7.7h0Z"/>
  <path class="st0" d="M270.4,75.2c-4.6,0-7-2.2-6.8-6.4,0-3.7,2.8-5.8,7.2-5.7,4.1,0,6.4,2.3,6.4,6.1s-2.3,6.1-6.7,6h-.1Z"/>
  <path class="st0" d="M45.8,809.5c-4.2,0-8.3-.6-12.3-1.8-3.9-1.1-7.6-2.8-11-4.9-3.4-2.1-6.5-4.7-9.2-7.7-2.8-3-5.2-6.3-7.1-9.9-2-3.7-3.5-7.6-4.6-11.7-2.2-8.6-2.2-17.6,0-26.2,1-4.1,2.6-8,4.6-11.8,1.9-3.6,4.3-6.9,7.1-9.9,2.7-2.9,5.9-5.5,9.3-7.6s7.1-3.8,11-4.9c8.1-2.3,16.6-2.3,24.7,0,3.9,1.1,7.6,2.8,11,4.9,3.4,2.1,6.5,4.7,9.2,7.7,2.8,3,5.2,6.3,7.1,9.9,8.3,15.5,8.3,34.1,0,49.6-1.9,3.6-4.3,6.9-7.1,9.9-2.7,2.9-5.8,5.5-9.2,7.7-3.4,2.1-7.1,3.8-11,4.9-4,1.2-8.2,1.7-12.4,1.7h-.1ZM45.8,789.9c3.5,0,6.9-.8,10-2.3,3-1.6,5.7-3.7,7.8-6.4,2.2-2.8,3.9-6,5-9.4,2.4-7.4,2.4-15.4,0-22.8-1.1-3.4-2.8-6.6-5.1-9.4-2.1-2.6-4.8-4.8-7.8-6.4-6.2-3.1-13.5-3.1-19.8,0-3,1.6-5.6,3.7-7.8,6.4-2.2,2.8-4,6-5.1,9.4-1.2,3.7-1.9,7.6-1.8,11.4,0,3.9.6,7.7,1.8,11.3,1.1,3.4,2.9,6.6,5.1,9.4,2.1,2.6,4.8,4.8,7.8,6.4,3.1,1.6,6.4,2.4,9.9,2.3h0Z"/>
  <path class="st0" d="M150.6,765.4c-1.6-2.1-3.7-3.8-6-5.1-2.4-1.2-5.1-1.7-7.8-1.5-2.2-.2-4.5.2-6.6,1-1.9.8-3.7,2-5.1,3.5-1.5,1.5-2.6,3.4-3.3,5.3-.8,2.2-1.2,4.6-1.2,7s.4,4.4,1.2,6.5c.8,2,1.9,3.8,3.4,5.3s3.2,2.7,5.1,3.5c2.1.9,4.2,1.4,6.5,1.5,1.8,0,3.6-.5,5.3-1.2,1.5-.6,3-1.5,4.3-2.5,1.2-1,2.3-2.2,3.2-3.4.8-1.1,1.5-2.3,2.1-3.6l17.2,4.8c-.8,2.8-2.1,5.4-3.7,7.8-1.8,2.8-4.1,5.3-6.8,7.4-6.5,5.2-14.6,7.9-22.9,7.7-4.7,0-9.4-.9-13.7-2.7-4-1.7-7.7-4.2-10.8-7.4-3-3.2-5.4-6.9-7-11-1.7-4.3-2.6-8.9-2.5-13.6,0-4.6.8-9.1,2.6-13.3,1.7-4,4.1-7.7,7.2-10.8s6.8-5.5,10.8-7.2c4.3-1.7,9-2.5,13.6-2.3,3.4-.2,6.9.2,10.2,1.2s6.5,2.4,9.4,4.3h12.4v18.8h-17.2.1Z"/>
  <path class="st0" d="M200.3,743h12.9v16.4h-13.1v27.4c-.1,1.3,0,2.6.3,3.8s.6,1.6,1.1,2.3c.4.6,1,1,1.7,1.2s1.5.3,2.3.3c1.4,0,2.8,0,4.2-.5,1.2-.3,2.4-.7,3.6-1.1l2.7,12.1c-2.2,1.4-4.6,2.4-7.1,3.2-3,.8-6.1,1.2-9.3,1.2s-5-.4-7.3-1.3c-2.3-.9-4.4-2.2-6.1-4-1.8-1.9-3.3-4.2-4.2-6.7-1.1-3-1.6-6.1-1.5-9.3l.2-28.7h-9.3v-16.4h9.4v-15.5c.1,0,19.6-9.2,19.6-9.2v24.8h0Z"/>
  <path class="st0" d="M225.4,775.2c0-4.5.8-9,2.6-13.2,3.3-8.2,9.8-14.7,18-18.1,8.9-3.6,18.9-3.6,27.8,0,4.1,1.7,7.8,4.2,10.9,7.3s5.5,6.8,7.1,10.8c1.7,4.2,2.6,8.7,2.5,13.2,0,4.5-.8,9.1-2.5,13.3-3.2,8.3-9.7,14.9-17.9,18.2-9.1,3.6-19.2,3.6-28.2,0-8.2-3.4-14.6-9.9-17.8-18.1-1.7-4.2-2.5-8.8-2.5-13.4ZM244.1,775.2c0,2.3.4,4.6,1.2,6.8.8,2,1.9,3.8,3.4,5.3,1.4,1.5,3.1,2.7,5,3.5s4,1.3,6.1,1.2c2.1,0,4.2-.4,6.2-1.2,1.9-.8,3.6-2,4.9-3.5,1.4-1.6,2.5-3.4,3.3-5.3.8-2.2,1.2-4.5,1.2-6.8s-.4-4.8-1.2-7c-.7-2-1.8-3.8-3.3-5.3-1.4-1.5-3.1-2.6-4.9-3.3-2-.8-4.1-1.2-6.2-1.1-2.1,0-4.2.3-6.1,1.1-1.9.8-3.6,1.9-5,3.3-1.5,1.5-2.6,3.3-3.4,5.3-.9,2.2-1.3,4.6-1.2,7h0Z"/>
  <path class="st0" d="M303.8,713h36.4c4.2,0,8.4.6,12.5,1.7,11.7,3.3,21.7,11.1,27.7,21.6,2,3.6,3.6,7.4,4.6,11.3,2.2,8.3,2.2,17,0,25.2-1.1,4-2.6,7.8-4.6,11.3s-4.4,6.7-7.2,9.6c-8.6,8.9-20.6,14-33,13.9h-36.4v-17.1h7.6v-60.4h-7.6v-17.2h0ZM332.1,730.2v60.4h7.9c3.3,0,6.6-.8,9.6-2.4,3-1.6,5.7-3.8,7.8-6.5,2.3-2.9,4.1-6.1,5.2-9.6,1.3-3.8,2-7.9,1.9-11.9,0-4-.6-8-1.9-11.8-1.2-3.5-3-6.7-5.2-9.6-2.1-2.6-4.8-4.8-7.8-6.4-3-1.5-6.2-2.3-9.6-2.3h-7.9Z"/>
  <path class="st0" d="M435.3,804.3c-1.5.9-2.8,1.7-4,2.3s-2.4,1.1-3.6,1.6c-1.2.4-2.5.7-3.8.9-1.4.2-2.8.3-4.2.3-3.5,0-7.1-.5-10.4-1.6-2.8-.9-5.5-2.4-7.8-4.4-2.1-1.8-3.7-4-4.8-6.6-2.3-5.3-2.3-11.3,0-16.5,1.1-2.5,2.9-4.8,5-6.5,2.4-1.9,5.1-3.4,8-4.2,3.5-1.1,7.1-1.6,10.7-1.5,2.7,0,5.4,0,8.1.5,2.4.3,4.7.7,6.8,1.2v-2c0-1.5-.3-2.9-.9-4.2-.6-1.2-1.5-2.2-2.6-2.9-1.2-.8-2.6-1.4-4.1-1.7-1.7-.4-3.4-.5-5.2-.5-3.5,0-7,.3-10.3,1.2-3,.8-5.9,1.9-8.6,3.3l-6-12.1c4.1-2.9,8.6-5.1,13.4-6.7,4.8-1.6,9.8-2.3,14.8-2.3s7.6.5,11.2,1.4c3.2.8,6.2,2.3,8.8,4.4,2.5,2.1,4.5,4.8,5.8,7.9,1.5,3.8,2.2,7.8,2.1,11.9v23.6h8.7v17.1h-27v-3.9h-.1ZM421,794.6c2.8,0,5.5-.5,8.1-1.4,2.2-.8,4.3-2,6.2-3.5v-8.2h-15c-1,0-1.9,0-2.8.4-.9.3-1.7.7-2.5,1.2-.7.5-1.3,1.2-1.8,2s-.7,1.8-.7,2.8c0,1.8.7,3.6,2.1,4.8,1.4,1.3,3.5,1.9,6.4,1.9h0Z"/>
  <path class="st0" d="M515.8,760c-.8-1-1.7-1.8-2.8-2.4-1.4-.8-3-1.3-4.6-1.7-2-.4-4.1-.6-6.2-.6s-1.9,0-2.8.2c-1,0-1.9.4-2.8.8-.8.3-1.5.9-2.1,1.5-.6.7-.9,1.6-.8,2.5,0,.5,0,1,.2,1.4.2.5.5.9.8,1.3.5.5,1.1.9,1.7,1.2.9.4,1.9.7,2.8.8l11.7,2.3c3.7.7,7.2,1.7,10.7,3.1,2.6,1,4.9,2.5,6.9,4.4,1.7,1.5,3,3.4,3.8,5.6.8,2.1,1.2,4.4,1.2,6.6,0,3.4-.8,6.8-2.6,9.8-1.7,2.8-4.1,5.2-6.8,7-2.9,1.9-6.1,3.3-9.5,4.2-3.5.9-7.1,1.4-10.7,1.4s-4.2,0-6.3-.4c-1.7-.3-3.4-.7-5.1-1.2-1.4-.5-2.8-1-4.1-1.8-1.2-.7-2.3-1.4-3.3-2.3h-11.3v-17.4h17.7v.4c0,1.1.4,2.3,1.1,3.2.8.9,1.7,1.7,2.8,2.3,1.2.7,2.5,1.1,3.9,1.4,1.5.3,3.1.5,4.6.5,3.8,0,6.5-.5,8.2-1.5,1.5-.7,2.5-2.1,2.6-3.8,0-1.2-.4-2.3-1.2-3.1-1.3-1.1-2.8-1.7-4.4-2l-12-2.6c-7.5-1.5-13.2-3.9-17.1-7.3-3.8-3.3-5.9-8.1-5.8-13.1,0-3,.7-5.9,2.2-8.5s3.5-4.8,5.9-6.6c2.7-1.9,5.6-3.3,8.8-4.2,3.5-1,7.1-1.5,10.8-1.5s4.7,0,7,.5c1.9.3,3.7.7,5.5,1.2,1.5.4,2.9,1,4.3,1.8,1.1.6,2.2,1.4,3.3,2.2h10.9v17.4h-16.1c0-1.1-.3-2.1-1-2.9h0Z"/>
  <path class="st0" d="M542.9,710.5h29.2v38.5c2.4-2.2,5.1-4,8.1-5.3,3.1-1.3,6.4-1.9,9.7-1.9,7.8,0,13.8,2.2,17.9,6.5,4.1,4.4,6.2,10.7,6.2,19.1v23.2h9.5v17.2h-28.9v-35.9c0-3.6-.9-6.5-2.7-8.6-1.7-2-4.3-3.2-6.9-3.1-2.1,0-4.2.6-6.1,1.6-2.4,1.2-4.7,2.7-6.7,4.6v24.4h9.5v17.1h-38.7v-17.1h10v-63h-10v-17.3h0Z"/>
  <path class="st1" d="M630.3,797.7c0-6.7,5.4-12.2,12-12.2h0c1.6,0,3.2.3,4.7,1,1.4.6,2.8,1.5,3.9,2.6,3.5,3.5,4.5,8.8,2.6,13.3-.6,1.4-1.5,2.8-2.6,3.9-1.1,1.1-2.4,2-3.8,2.6-1.5.7-3.1,1-4.7,1s-3.3-.3-4.8-1c-1.4-.6-2.7-1.5-3.9-2.6-1.1-1.1-2-2.4-2.6-3.8-.6-1.5-.9-3.2-.9-4.8h0Z"/>
</svg>