<?xml version="1.0" encoding="UTF-8"?>
<svg id="Layer_1" xmlns="http://www.w3.org/2000/svg" version="1.1" viewBox="0 0 654.6 809.9">
  <!-- Generator: Adobe Illustrator 29.3.1, SVG Export Plug-In . SVG Version: 2.1.0 Build 151)  -->
  <defs>
    <style>
      .st0 {
        fill: #f5f6fa;
      }

      .st1 {
        fill: #6319bf;
      }
    </style>
  </defs>
  <path class="st0" d="M630.4,347c3,23-3.8,76.5-8.8,95.8-6.9,26.6-17.4,52.1-31.3,75.8-9.4,16-20.1,31.1-32,45.3-6.4,7.7-13.8,14.5-20.8,21.7-1.4,1.4-2.3,1.3-3.7,0-14.2-14.3-28.4-28.5-42.6-42.6-2.3-2.3-1-3.6.7-5.2,14-13.5,26.3-28.5,36.7-44.9,25.7-40.9,38.4-88.5,36.4-136.8-.8-18.5-3.8-36.8-8.8-54.5-4.1-14.6-9.6-28.8-16.4-42.3-8.3-16.3-18.5-31.5-30.2-45.5-18-21.6-39.7-39.8-64-53.8-22.3-12.9-46.5-21.9-71.8-26.7-18.6-3.5-37.4-5-56.3-4.5-2.8,0-5.4,1-8.2.9-2.6-.1-3.6-1.1-3.5-3.7.5-13.8,2.7-27.3,8.6-40,3.4-7.4,7.4-14.6,12-21.3.9-1.5,2.6-2.4,4.3-2.3,14.3.2,28.6,1.4,42.8,3.6,18.9,2.8,37.5,7.4,55.5,13.8,17.7,6.3,34.8,14.2,51,23.7,16.1,9.2,31.2,20,45.2,32.1,24.2,20.9,45,45.4,61.8,72.7,9.4,15.4,17.5,31.6,24,48.4,6.4,16.4,11.3,33.4,14.7,50.7,1.9,9.9,3.4,19.9,4.3,30"/>
  <path class="st0" d="M25.4,399c-9-53,9.5-119.5,20.6-147,10.7-26.4,25.1-51.1,42.8-73.4,10.5-13.3,22-25.7,34.5-37.1,17-15.7,35.9-29.3,56.1-40.5,7.1-3.9,14.5-7.4,21.8-11.2,1.4-.7,2.9-1.2,5.3-2.1-3,6.4-5.6,11.8-8,17.4-7,16.2-12,33.2-14.9,50.6-1,6.3-2.2,12.5-2.2,18.9s-3.1,7.1-6.2,9.6c-10.7,8.8-20.6,18.7-29.5,29.4-9.2,10.9-17.5,22.6-24.6,34.9-10.9,19-19.1,39.5-24.2,60.9-3.2,13.5-5.3,27.2-6.2,41-.7,8.7-.8,17.5-.4,26.3.8,18.2,3.7,36.3,8.6,53.8,4.1,14.9,9.7,29.3,16.7,43,8.2,16.1,18.2,31.1,29.8,44.9,6.4,7.5,13.2,14.8,20.3,21.6,2.1,2,1.8,3.2-.1,5.1-13.8,13.7-27.6,27.5-41.3,41.3-2.2,2.2-3.5,2.3-5.8,0-40-37.8-68.9-85.9-83.7-138.9-4.5-16.2-7.2-32.6-9.6-49.1"/>
  <path class="st0" d="M311.4,49.2c0,7.6-6.9,3.9-15.1,3.8s-14.9,3.6-14.8-4,6.9-23.9,15.1-23.8,14.9,16.4,14.8,24Z"/>
  <path class="st0" d="M343.5,611c-51.3,0-84.1-20-84.1-51.4s37.9-44.6,92-44.6,78,21.7,78,52.6-38.7,43.4-85.9,43.4Z"/>
  <path class="st0" d="M361.4,431c47.1,0,78.1,16,78.1,40.2s-32.9,37.8-83,37.8-75-16.5-75-41,33.6-37,79.9-37Z"/>
  <path class="st0" d="M281.4,386.7c0-23.4,26.7-40.5,64.9-40.7,32.1-.1,67,18.1,63.9,42.6-2.9,23.5-26.5,38.4-67.6,38.4s-61.2-16.3-61.2-40.3h0Z"/>
  <path class="st0" d="M382,319.7c4.4,18.7-25.6,39.6-55.5,38.2-33.6-1.6-55.1-15.6-55-39.5,0-22.6,22.3-37.4,56.2-37.4s54.3,15.4,54.3,38.7h0Z"/>
  <path class="st0" d="M291.8,302c-31,0-50.4-14.4-50.4-37.3s20.3-35.7,52.6-35.7,50.4,14.4,50.4,37.3-20.2,35.7-52.6,35.7h0Z"/>
  <path class="st0" d="M262.5,244c-29.2,0-48.1-13-48.1-32.9s18.2-32.1,48.7-32.1,47.4,13.3,47.3,33.5c0,19.4-18.6,31.5-47.9,31.5Z"/>
  <path class="st0" d="M290.4,159.2c0,14.6-16.9,23.9-43.1,23.8-24.5,0-41-9.8-40.9-24.2,0-14.6,16.9-23.9,43.1-23.8,24.5,0,41,9.8,40.9,24.2Z"/>
  <path class="st0" d="M251,128c-12.9,0-19.6-7.5-19.6-21.7s6.7-21.4,20.8-21.3c12.6,0,19.3,7.8,19.2,22.2-.1,13.7-7.2,20.9-20.4,20.8Z"/>
  <path class="st0" d="M271.3,85.2c-12.1,0-17-12.4-16.7-20.6.2-7.3,7.3-11.5,18.9-11.2,10.7.2,17,4.6,16.9,12,0,8-7.3,20-19.1,19.9h0Z"/>
  <path class="st1" d="M311.1,669.9c-6.5-1.5-13.1-1.4-19.6-2.2-42.5-5.2-83.4-19.3-120-41.5-.2,0-.3-.3-.6-.7,7.1-4.2,13.8-9.1,20.1-14.5,19.5-16.8,33.8-37.5,45.4-60.4,13.1-26,22-53.3,24.9-82.3,3.1-31.4-.4-62.1-9.3-92.3-5.9-20-13.7-39.3-23.4-57.8-15-29.1-26.3-59.5-30.1-92.1-9.6-82.7,16.2-152.1,80.2-206.2,10.5-8.9,22.4-15.6,36-18.9,6.5-1.5,12.9-1.6,19.2.8,9,3.4,12.8,11.8,9.1,20.7-2.7,6.5-7.3,11.7-11.7,17-9.8,11.6-19.6,23.2-27.1,36.5-17.4,30.9-16.7,62.5-3.3,94.5,9.4,22.6,23.5,42.2,38.8,61.1,30.8,37.8,59.6,77,83.2,119.8,18.6,33.8,33.2,69.1,40.8,107.1,6.1,30.2,7.2,61.2,3.3,91.7-3.3,25-8,49.7-18.6,72.9-4,9.1-9,17.7-15,25.6-1.8,2.4-4.3,4.2-7.2,5.1-19.9,6.6-40.4,11.2-61.2,13.9-5.9.8-11.9.6-17.7,2.1h-36.2ZM382.7,599.1c18.7,0,33.9-15.2,33.9-33.9s-15.2-33.9-33.9-33.9-33.9,15.1-33.9,33.8,15.1,34,33.9,34h0ZM309.6,531.3c-18.7,0-33.9,15.2-33.9,33.9s15.2,33.9,33.9,33.9,33.9-15.1,33.9-33.8-15.2-33.9-33.9-34h0ZM329.3,502.6c16,.1,29.1-12.8,29.2-28.8s-12.8-29.1-28.8-29.2-29.1,12.8-29.2,28.8h0c0,16,12.8,29,28.8,29.1h0ZM391.7,442.3c-16-.2-29.2,12.6-29.3,28.6-.2,16,12.6,29.2,28.6,29.3,16,.2,29.2-12.6,29.3-28.6h0c.1-16-12.7-29.1-28.7-29.3h.1ZM321.3,368.5c-14.4,0-26,11.6-26.1,25.9,0,14.4,11.6,26,25.9,26.1,14.3,0,25.9-11.4,26.1-25.7.2-14.4-11.3-26.1-25.7-26.3h-.2,0ZM403,386.2c0-14.4-11.6-26-26-26s-26,11.6-26,26,11.6,26,26,26h.2c14.3-.1,25.8-11.7,25.8-26h0ZM349.3,339.8c12.9.1,23.4-10.3,23.5-23.1.1-12.9-10.3-23.4-23.1-23.5-12.9-.1-23.4,10.3-23.5,23.1v.2c0,12.8,10.3,23.2,23.1,23.4h0ZM323.9,328.7c0-12.9-10.3-23.4-23.2-23.5-12.9,0-23.4,10.3-23.5,23.2,0,12.8,10.2,23.3,23,23.5,12.9.1,23.6-10.2,23.7-23.2ZM314.7,278c11.7,0,21.1-9.3,21.2-21,0-11.7-9.3-21.1-21-21.2s-21.1,9.3-21.2,21h0c0,11.6,9.4,21.1,21,21.1h0ZM272.7,253.1c-11.7,0-21.1,9.3-21.2,21s9.3,21.1,21,21.2c11.7,0,21.1-9.3,21.2-21h0c0-11.6-9.4-21-21-21.1h0ZM285.4,186.8c-10.9-.2-20,8.1-20.3,18.4-.1,10.9,8.6,19.9,19.5,20h.1c10.9.2,20.1-8.1,20.3-18.4.1-10.9-8.6-19.9-19.5-20h-.1ZM242.9,196.6c-10.9,0-19.9,8.3-20,18.7-.1,10.8,8.8,19.7,19.9,19.7s20.1-8.5,20.1-19-9-19.3-20-19.4ZM267.9,138.6c-9.9,0-18,8-17.9,17.5s8.3,17.2,18.2,17.2,18-8,17.9-17.5-8.2-17.2-18.2-17.2h0ZM229.7,176.2c9.9,0,18.1-7.9,18-17.4s-8.2-17.3-18.1-17.3-18,7.8-18,17.4,8.2,17.3,18.2,17.2h0ZM265,108.1c.2-8.7-6.7-16-15.4-16.2-8.7-.2-16,6.7-16.2,15.4-.2,8.7,6.7,16,15.4,16.2h.5c8.6,0,15.7-6.8,15.8-15.4h-.1ZM270.4,56.4c-7.5,0-13.6,5.7-13.7,12.7-.1,7,6.1,12.9,13.5,12.9s13.6-5.6,13.7-12.7-6-12.9-13.4-12.9h-.1ZM307.3,41c0-5.6-4.8-10.2-10.8-10.3s-11,4.5-11,10.1,4.9,10.2,10.8,10.3,10.9-4.5,11-10.1Z"/>
  <path class="st0" d="M45.8,809.5c-4.2,0-8.3-.6-12.3-1.8-3.9-1.1-7.6-2.8-11-4.9-3.4-2.1-6.5-4.7-9.2-7.7-2.8-3-5.2-6.3-7.1-9.9-2-3.7-3.5-7.6-4.6-11.7-2.2-8.6-2.2-17.6,0-26.2,1-4.1,2.6-8,4.6-11.8,1.9-3.6,4.3-6.9,7.1-9.9,2.7-2.9,5.9-5.5,9.3-7.6s7.1-3.8,11-4.9c8.1-2.3,16.6-2.3,24.7,0,3.9,1.1,7.6,2.8,11,4.9,3.4,2.1,6.5,4.7,9.2,7.7,2.8,3,5.2,6.3,7.1,9.9,8.3,15.5,8.3,34.1,0,49.6-1.9,3.6-4.3,6.9-7.1,9.9-2.7,2.9-5.8,5.5-9.2,7.7-3.4,2.1-7.1,3.8-11,4.9-4,1.2-8.2,1.7-12.4,1.7h-.1ZM45.8,789.9c3.5,0,6.9-.8,10-2.3,3-1.6,5.7-3.7,7.8-6.4,2.2-2.8,3.9-6,5-9.4,2.4-7.4,2.4-15.4,0-22.8-1.1-3.4-2.8-6.6-5.1-9.4-2.1-2.6-4.8-4.8-7.8-6.4-6.2-3.1-13.5-3.1-19.8,0-3,1.6-5.6,3.7-7.8,6.4-2.2,2.8-4,6-5.1,9.4-1.2,3.7-1.9,7.6-1.8,11.4,0,3.9.6,7.7,1.8,11.3,1.1,3.4,2.9,6.6,5.1,9.4,2.1,2.6,4.8,4.8,7.8,6.4,3.1,1.6,6.4,2.4,9.9,2.3h0Z"/>
  <path class="st0" d="M150.6,765.4c-1.6-2.1-3.7-3.8-6-5.1-2.4-1.2-5.1-1.7-7.8-1.5-2.2-.2-4.5.2-6.6,1-1.9.8-3.7,2-5.1,3.5-1.5,1.5-2.6,3.4-3.3,5.3-.8,2.2-1.2,4.6-1.2,7s.4,4.4,1.2,6.5c.8,2,1.9,3.8,3.4,5.3s3.2,2.7,5.1,3.5c2.1.9,4.2,1.4,6.5,1.5,1.8,0,3.6-.5,5.3-1.2,1.5-.6,3-1.5,4.3-2.5,1.2-1,2.3-2.2,3.2-3.4.8-1.1,1.5-2.3,2.1-3.6l17.2,4.8c-.8,2.8-2.1,5.4-3.7,7.8-1.8,2.8-4.1,5.3-6.8,7.4-6.5,5.2-14.6,7.9-22.9,7.7-4.7,0-9.4-.9-13.7-2.7-4-1.7-7.7-4.2-10.8-7.4-3-3.2-5.4-6.9-7-11-1.7-4.3-2.6-8.9-2.5-13.6,0-4.6.8-9.1,2.6-13.3,1.7-4,4.1-7.7,7.2-10.8s6.8-5.5,10.8-7.2c4.3-1.7,9-2.5,13.6-2.3,3.4-.2,6.9.2,10.2,1.2s6.5,2.4,9.4,4.3h12.4v18.8h-17.2.1Z"/>
  <path class="st0" d="M200.3,743h12.9v16.4h-13.1v27.4c-.1,1.3,0,2.6.3,3.8s.6,1.6,1.1,2.3c.4.6,1,1,1.7,1.2s1.5.3,2.3.3c1.4,0,2.8,0,4.2-.5,1.2-.3,2.4-.7,3.6-1.1l2.7,12.1c-2.2,1.4-4.6,2.4-7.1,3.2-3,.8-6.1,1.2-9.3,1.2s-5-.4-7.3-1.3c-2.3-.9-4.4-2.2-6.1-4-1.8-1.9-3.3-4.2-4.2-6.7-1.1-3-1.6-6.1-1.5-9.3l.2-28.7h-9.3v-16.4h9.4v-15.5c.1,0,19.6-9.2,19.6-9.2v24.8h0Z"/>
  <path class="st0" d="M225.4,775.2c0-4.5.8-9,2.6-13.2,3.3-8.2,9.8-14.7,18-18.1,8.9-3.6,18.9-3.6,27.8,0,4.1,1.7,7.8,4.2,10.9,7.3s5.5,6.8,7.1,10.8c1.7,4.2,2.6,8.7,2.5,13.2,0,4.5-.8,9.1-2.5,13.3-3.2,8.3-9.7,14.9-17.9,18.2-9.1,3.6-19.2,3.6-28.2,0-8.2-3.4-14.6-9.9-17.8-18.1-1.7-4.2-2.5-8.8-2.5-13.4ZM244.1,775.2c0,2.3.4,4.6,1.2,6.8.8,2,1.9,3.8,3.4,5.3,1.4,1.5,3.1,2.7,5,3.5s4,1.3,6.1,1.2c2.1,0,4.2-.4,6.2-1.2,1.9-.8,3.6-2,4.9-3.5,1.4-1.6,2.5-3.4,3.3-5.3.8-2.2,1.2-4.5,1.2-6.8s-.4-4.8-1.2-7c-.7-2-1.8-3.8-3.3-5.3-1.4-1.5-3.1-2.6-4.9-3.3-2-.8-4.1-1.2-6.2-1.1-2.1,0-4.2.3-6.1,1.1-1.9.8-3.6,1.9-5,3.3-1.5,1.5-2.6,3.3-3.4,5.3-.9,2.2-1.3,4.6-1.2,7h0Z"/>
  <path class="st0" d="M303.8,713h36.4c4.2,0,8.4.6,12.5,1.7,11.7,3.3,21.7,11.1,27.7,21.6,2,3.6,3.6,7.4,4.6,11.3,2.2,8.3,2.2,17,0,25.2-1.1,4-2.6,7.8-4.6,11.3s-4.4,6.7-7.2,9.6c-8.6,8.9-20.6,14-33,13.9h-36.4v-17.1h7.6v-60.4h-7.6v-17.2h0ZM332.1,730.2v60.4h7.9c3.3,0,6.6-.8,9.6-2.4,3-1.6,5.7-3.8,7.8-6.5,2.3-2.9,4.1-6.1,5.2-9.6,1.3-3.8,2-7.9,1.9-11.9,0-4-.6-8-1.9-11.8-1.2-3.5-3-6.7-5.2-9.6-2.1-2.6-4.8-4.8-7.8-6.4-3-1.5-6.2-2.3-9.6-2.3h-7.9Z"/>
  <path class="st0" d="M435.3,804.3c-1.5.9-2.8,1.7-4,2.3s-2.4,1.1-3.6,1.6c-1.2.4-2.5.7-3.8.9-1.4.2-2.8.3-4.2.3-3.5,0-7.1-.5-10.4-1.6-2.8-.9-5.5-2.4-7.8-4.4-2.1-1.8-3.7-4-4.8-6.6-2.3-5.3-2.3-11.3,0-16.5,1.1-2.5,2.9-4.8,5-6.5,2.4-1.9,5.1-3.4,8-4.2,3.5-1.1,7.1-1.6,10.7-1.5,2.7,0,5.4,0,8.1.5,2.4.3,4.7.7,6.8,1.2v-2c0-1.5-.3-2.9-.9-4.2-.6-1.2-1.5-2.2-2.6-2.9-1.2-.8-2.6-1.4-4.1-1.7-1.7-.4-3.4-.5-5.2-.5-3.5,0-7,.3-10.3,1.2-3,.8-5.9,1.9-8.6,3.3l-6-12.1c4.1-2.9,8.6-5.1,13.4-6.7,4.8-1.6,9.8-2.3,14.8-2.3s7.6.5,11.2,1.4c3.2.8,6.2,2.3,8.8,4.4,2.5,2.1,4.5,4.8,5.8,7.9,1.5,3.8,2.2,7.8,2.1,11.9v23.6h8.7v17.1h-27v-3.9ZM421,794.6c2.8,0,5.5-.5,8.1-1.4,2.2-.8,4.3-2,6.2-3.5v-8.2h-15c-1,0-1.9,0-2.8.4-.9.3-1.7.7-2.5,1.2-.7.5-1.3,1.2-1.8,2s-.7,1.8-.7,2.8c0,1.8.7,3.6,2.1,4.8,1.4,1.3,3.5,1.9,6.4,1.9h0Z"/>
  <path class="st0" d="M515.8,760c-.8-1-1.7-1.8-2.8-2.4-1.4-.8-3-1.3-4.6-1.7-2-.4-4.1-.6-6.2-.6s-1.9,0-2.8.2c-1,0-1.9.4-2.8.8-.8.3-1.5.9-2.1,1.5-.6.7-.9,1.6-.8,2.5,0,.5,0,1,.2,1.4.2.5.5.9.8,1.3.5.5,1.1.9,1.7,1.2.9.4,1.9.7,2.8.8l11.7,2.3c3.7.7,7.2,1.7,10.7,3.1,2.6,1,4.9,2.5,6.9,4.4,1.7,1.5,3,3.4,3.8,5.6.8,2.1,1.2,4.4,1.2,6.6,0,3.4-.8,6.8-2.6,9.8-1.7,2.8-4.1,5.2-6.8,7-2.9,1.9-6.1,3.3-9.5,4.2-3.5.9-7.1,1.4-10.7,1.4s-4.2,0-6.3-.4c-1.7-.3-3.4-.7-5.1-1.2-1.4-.5-2.8-1-4.1-1.8-1.2-.7-2.3-1.4-3.3-2.3h-11.3v-17.4h17.7v.4c0,1.1.4,2.3,1.1,3.2.8.9,1.7,1.7,2.8,2.3,1.2.7,2.5,1.1,3.9,1.4,1.5.3,3.1.5,4.6.5,3.8,0,6.5-.5,8.2-1.5,1.5-.7,2.5-2.1,2.6-3.8,0-1.2-.4-2.3-1.2-3.1-1.3-1.1-2.8-1.7-4.4-2l-12-2.6c-7.5-1.5-13.2-3.9-17.1-7.3-3.8-3.3-5.9-8.1-5.8-13.1,0-3,.7-5.9,2.2-8.5s3.5-4.8,5.9-6.6c2.7-1.9,5.6-3.3,8.8-4.2,3.5-1,7.1-1.5,10.8-1.5s4.7,0,7,.5c1.9.3,3.7.7,5.5,1.2,1.5.4,2.9,1,4.3,1.8,1.1.6,2.2,1.4,3.3,2.2h10.9v17.4h-16.1c0-1.1-.3-2.1-1-2.9h0Z"/>
  <path class="st0" d="M542.9,710.5h29.2v38.5c2.4-2.2,5.1-4,8.1-5.3,3.1-1.3,6.4-1.9,9.7-1.9,7.8,0,13.8,2.2,17.9,6.5,4.1,4.4,6.2,10.7,6.2,19.1v23.2h9.5v17.2h-28.9v-35.9c0-3.6-.9-6.5-2.7-8.6-1.7-2-4.3-3.2-6.9-3.1-2.1,0-4.2.6-6.1,1.6-2.4,1.2-4.7,2.7-6.7,4.6v24.4h9.5v17.1h-38.7v-17.1h10v-63h-10v-17.3Z"/>
  <path class="st1" d="M630.3,797.7c0-6.7,5.4-12.2,12-12.2h0c1.6,0,3.2.3,4.7,1,1.4.6,2.8,1.5,3.9,2.6,3.5,3.5,4.5,8.8,2.6,13.3-.6,1.4-1.5,2.8-2.6,3.9-1.1,1.1-2.4,2-3.8,2.6-1.5.7-3.1,1-4.7,1s-3.3-.3-4.8-1c-1.4-.6-2.7-1.5-3.9-2.6-1.1-1.1-2-2.4-2.6-3.8-.6-1.5-.9-3.2-.9-4.8Z"/>
</svg>