<svg xmlns="http://www.w3.org/2000/svg" viewBox="0 0 654.56 809.86"><title>Logo-15-dark-with-title</title><path fill="#2f3640" d="M634.56,347c3,23-3.82,76.48-8.84,95.84a301.46,301.46,0,0,1-31.26,75.8,332,332,0,0,1-32,45.26c-6.41,7.74-13.8,14.55-20.83,21.71-1.4,1.43-2.33,1.33-3.69,0Q516.67,564.21,495.3,543c-2.34-2.31-1-3.6.67-5.2a243.43,243.43,0,0,0,36.73-44.93A238.91,238.91,0,0,0,569.1,356.1a241.7,241.7,0,0,0-8.76-54.54,232.51,232.51,0,0,0-16.41-42.3,243.63,243.63,0,0,0-30.22-45.54,237.26,237.26,0,0,0-64-53.77,229.8,229.8,0,0,0-71.79-26.7,264.82,264.82,0,0,0-56.3-4.5c-2.76.06-5.39,1-8.19.86-2.63-.1-3.57-1.1-3.47-3.65.52-13.85,2.73-27.34,8.64-40a138.16,138.16,0,0,1,12-21.28,4.62,4.62,0,0,1,4.31-2.26A319.27,319.27,0,0,1,377.67,66,292.64,292.64,0,0,1,433.2,79.82a303.22,303.22,0,0,1,51,23.7,289.28,289.28,0,0,1,45.21,32.06,311.82,311.82,0,0,1,61.76,72.65,299.59,299.59,0,0,1,24,48.44,294.81,294.81,0,0,1,14.65,50.73,299.91,299.91,0,0,1,4.29,30" transform="translate(-4.13)"/><path fill="#2f3640" d="M29.56,399c-9-53,9.49-119.52,20.65-147A301.14,301.14,0,0,1,93,178.58a317.5,317.5,0,0,1,34.51-37.11A288.52,288.52,0,0,1,183.64,101c7.15-3.94,14.52-7.41,21.76-11.16,1.39-.72,2.93-1.16,5.28-2.06-3,6.38-5.63,11.83-8,17.4a214.85,214.85,0,0,0-14.87,50.59c-1,6.28-2.21,12.54-2.23,18.92,0,4.57-3.08,7.07-6.16,9.57a219.87,219.87,0,0,0-29.46,29.37,233.45,233.45,0,0,0-24.57,34.93,229,229,0,0,0-24.17,60.88,256.44,256.44,0,0,0-6.25,41,217.18,217.18,0,0,0-.44,26.29,242.77,242.77,0,0,0,8.63,53.81,233,233,0,0,0,16.71,43,235.79,235.79,0,0,0,29.82,44.92A285.32,285.32,0,0,0,170,540.06c2.13,2.05,1.8,3.17-.12,5.07q-20.76,20.54-41.3,41.3c-2.15,2.17-3.48,2.31-5.78.09A303.25,303.25,0,0,1,39.14,447.64c-4.49-16.16-7.21-32.6-9.63-49.14" transform="translate(-4.13)"/><path fill="#2f3640" d="M315.48,49.2c-.07,7.62-6.88,3.86-15.06,3.8s-14.9,3.56-14.83-4.05,6.93-23.86,15.08-23.8S315.55,41.57,315.48,49.2Z" transform="translate(-4.13)"/><path fill="#2f3640" d="M347.68,611c-51.34,0-84.12-20-84.11-51.4,0-26.24,37.92-44.61,92.05-44.6,45.78,0,78,21.73,77.95,52.56C433.53,591.46,394.91,611,347.68,611Z" transform="translate(-4.13)"/><path fill="#2f3640" d="M365.49,431c47.08,0,78.09,16,78.08,40.22,0,22.82-32.91,37.8-83,37.78-44.81,0-75-16.52-75-41C285.59,446.56,319.2,431,365.49,431Z" transform="translate(-4.13)"/><path fill="#2f3640" d="M285.56,386.69c0-23.36,26.74-40.55,64.89-40.69,32.07-.12,67,18.07,63.92,42.6-2.92,23.46-26.52,38.42-67.6,38.4C310.33,427,285.56,410.68,285.56,386.69Z" transform="translate(-4.13)"/><path fill="#2f3640" d="M386.13,319.69c4.41,18.73-25.65,39.64-55.53,38.25-33.61-1.57-55.09-15.56-55-39.55.05-22.62,22.29-37.41,56.22-37.38C364.6,281,386.15,296.37,386.13,319.69Z" transform="translate(-4.13)"/><path fill="#2f3640" d="M295.91,302c-31.05,0-50.39-14.36-50.35-37.31,0-22,20.26-35.71,52.65-35.69,31.05,0,50.39,14.36,50.35,37.31C348.52,288.32,328.31,302,295.91,302Z" transform="translate(-4.13)"/><path fill="#2f3640" d="M266.66,244c-29.24,0-48.13-13-48.1-32.91,0-20.17,18.21-32.15,48.67-32.09,28.69.06,47.41,13.3,47.33,33.46C314.48,231.88,296,244,266.66,244Z" transform="translate(-4.13)"/><path fill="#2f3640" d="M294.56,159.2c0,14.56-16.93,23.89-43.08,23.79-24.53-.09-41-9.81-40.92-24.2,0-14.56,16.93-23.89,43.08-23.79C278.17,135.09,294.6,144.81,294.56,159.2Z" transform="translate(-4.13)"/><path fill="#2f3640" d="M255.15,128c-12.88-.05-19.63-7.54-19.59-21.74,0-14.59,6.7-21.38,20.82-21.26,12.61.11,19.3,7.85,19.18,22.19C275.44,120.87,268.39,128.06,255.15,128Z" transform="translate(-4.13)"/><path fill="#2f3640" d="M275.46,85.25c-12.15-.11-17-12.44-16.74-20.62.25-7.29,7.27-11.46,18.91-11.25,10.73.2,17,4.61,16.93,12C294.54,73.38,287.24,85.36,275.46,85.25Z" transform="translate(-4.13)"/><path fill="#44bd32" d="M315.2,669.93c-6.46-1.49-13.1-1.39-19.64-2.2A301.83,301.83,0,0,1,175.6,626.26c-.18-.11-.29-.34-.62-.73a147.59,147.59,0,0,0,20.14-14.45c19.53-16.82,33.84-37.52,45.36-60.37,13.11-26,22-53.27,24.85-82.31,3.11-31.37-.41-62.12-9.27-92.31a325.54,325.54,0,0,0-23.35-57.78c-15-29.08-26.31-59.49-30.09-92.1C193,143.47,218.79,74.13,282.8,20c10.49-8.88,22.43-15.63,36-18.85,6.49-1.54,12.88-1.64,19.24.78,9,3.42,12.78,11.81,9.07,20.71-2.7,6.48-7.29,11.68-11.73,17-9.78,11.63-19.6,23.2-27.1,36.53-17.41,30.95-16.66,62.49-3.3,94.48,9.44,22.58,23.45,42.25,38.79,61.1,30.78,37.82,59.61,77,83.19,119.84,18.6,33.79,33.21,69.09,40.76,107.1A280.25,280.25,0,0,1,471,550.41c-3.3,25-8,49.7-18.58,72.89a126.61,126.61,0,0,1-15,25.56,14.45,14.45,0,0,1-7.19,5.09A325.33,325.33,0,0,1,369,667.81c-5.89.75-11.88.58-17.67,2.12Zm71.61-70.85a33.91,33.91,0,1,0-33.92-34A33.94,33.94,0,0,0,386.81,599.08Zm-73.09-67.82a33.91,33.91,0,1,0,33.89,34A34,34,0,0,0,313.72,531.25Zm19.74-28.65a29,29,0,1,0-28.8-29.14A29,29,0,0,0,333.45,502.6Zm62.38-60.29a29,29,0,1,0,28.65,29.28A29.06,29.06,0,0,0,395.83,442.31Zm-70.37-73.86a26,26,0,1,0,25.91,26.28A26,26,0,0,0,325.46,368.45Zm81.69,17.71a26,26,0,1,0-25.8,26A26,26,0,0,0,407.15,386.16Zm-53.72-46.38a23.35,23.35,0,1,0-23.15-23.36A23.42,23.42,0,0,0,353.43,339.78ZM328,328.66a23.36,23.36,0,1,0-23.71,23.19A23.46,23.46,0,0,0,328,328.66ZM318.84,278a21.1,21.1,0,1,0-21-21.14A21.15,21.15,0,0,0,318.84,278Zm-42-24.86a21.1,21.1,0,1,0,21,21.12A21.13,21.13,0,0,0,276.87,253.13Zm12.65-66.31c-10.89-.2-20,8.11-20.29,18.43a19.77,19.77,0,0,0,19.64,20c10.93.16,20.06-8.14,20.3-18.43A19.77,19.77,0,0,0,289.52,186.82ZM247,196.61c-10.92,0-19.9,8.34-20,18.71-.13,10.78,8.84,19.67,19.91,19.72S267,226.53,267,216,258,196.66,247,196.61Zm25-58c-9.93.07-18,8-17.91,17.49s8.3,17.23,18.25,17.16,18-8,17.9-17.49S282,138.52,272.06,138.59Zm-38.2,37.64c9.94,0,18.05-7.86,18-17.38s-8.2-17.3-18.14-17.26-18,7.84-18,17.38S223.91,176.26,233.86,176.23Zm35.34-68.15a15.81,15.81,0,1,0-15.75,15.4A15.68,15.68,0,0,0,269.2,108.08Zm5.42-51.66c-7.45-.06-13.62,5.67-13.68,12.69S266.95,82,274.38,82,288,76.38,288.06,69.35,282.07,56.48,274.62,56.42ZM311.4,41.05c.05-5.57-4.84-10.21-10.81-10.26s-11,4.54-11,10.07,4.86,10.21,10.82,10.26S311.35,46.61,311.4,41.05Z" transform="translate(-4.13)"/><path fill="#2f3640" d="M49.94,809.48a42.92,42.92,0,0,1-12.31-1.75,44.51,44.51,0,0,1-11-4.94,45.65,45.65,0,0,1-9.25-7.66,47.51,47.51,0,0,1-7.09-9.94,52.61,52.61,0,0,1-4.56-11.72,53.44,53.44,0,0,1,0-26.16,52.49,52.49,0,0,1,4.56-11.75,47.56,47.56,0,0,1,7.09-9.94A45.68,45.68,0,0,1,26.66,718a44.55,44.55,0,0,1,11-4.94,44.3,44.3,0,0,1,24.66,0,44.44,44.44,0,0,1,11,4.94,45.73,45.73,0,0,1,9.25,7.66,48.54,48.54,0,0,1,7.13,9.94,52.39,52.39,0,0,1,0,49.63,48.48,48.48,0,0,1-7.12,9.94,45.7,45.7,0,0,1-9.25,7.66,44.4,44.4,0,0,1-11,4.94A43.25,43.25,0,0,1,49.94,809.48Zm0-19.62a21.37,21.37,0,0,0,10-2.34,24.17,24.17,0,0,0,7.78-6.37,29.8,29.8,0,0,0,5-9.37,37,37,0,0,0,0-22.78,29.86,29.86,0,0,0-5.09-9.41,24.61,24.61,0,0,0-7.78-6.37,22,22,0,0,0-19.75,0,24.26,24.26,0,0,0-7.75,6.38A30.69,30.69,0,0,0,27.22,749a35,35,0,0,0-1.84,11.44,34.53,34.53,0,0,0,1.84,11.34,30.76,30.76,0,0,0,5.09,9.38,24.26,24.26,0,0,0,7.75,6.38A21.05,21.05,0,0,0,49.94,789.86Z" transform="translate(-4.13)"/><path fill="#2f3640" d="M154.75,765.42a18.78,18.78,0,0,0-6-5.09,14.91,14.91,0,0,0-7.81-1.47,14.26,14.26,0,0,0-6.59,1,15.16,15.16,0,0,0-5.12,3.5,15.8,15.8,0,0,0-3.34,5.34,19.32,19.32,0,0,0-1.19,7,17,17,0,0,0,1.25,6.5,16.33,16.33,0,0,0,3.41,5.28,15.37,15.37,0,0,0,5.13,3.47,20.23,20.23,0,0,0,6.47,1.5,18.39,18.39,0,0,0,5.34-1.22,16.38,16.38,0,0,0,4.28-2.5,17.29,17.29,0,0,0,3.22-3.44,21.45,21.45,0,0,0,2.09-3.59l17.19,4.75a29.76,29.76,0,0,1-3.66,7.81,30.81,30.81,0,0,1-6.75,7.41,35.81,35.81,0,0,1-22.91,7.72,33.94,33.94,0,0,1-13.69-2.72,32.91,32.91,0,0,1-10.75-7.41,33.94,33.94,0,0,1-7-11,36.1,36.1,0,0,1-2.53-13.56,34,34,0,0,1,2.59-13.34,33.59,33.59,0,0,1,7.16-10.75,32.27,32.27,0,0,1,10.84-7.16A32.82,32.82,0,0,1,140,741.11a31,31,0,0,1,10.19,1.19,35.39,35.39,0,0,1,9.38,4.31H172v18.81Z" transform="translate(-4.13)"/><path fill="#2f3640" d="M204.44,743h12.94v16.38H204.31l-.12,27.38a16,16,0,0,0,.38,3.84,6,6,0,0,0,1.09,2.34,3.57,3.57,0,0,0,1.72,1.19,7.74,7.74,0,0,0,2.31.31,16.81,16.81,0,0,0,4.19-.47q1.81-.47,3.63-1.09L220.19,805a29.28,29.28,0,0,1-7.09,3.19,32.13,32.13,0,0,1-9.28,1.19,20.4,20.4,0,0,1-7.28-1.31,16.86,16.86,0,0,1-6.09-4,19.31,19.31,0,0,1-4.19-6.66,24.67,24.67,0,0,1-1.5-9.31l.19-28.69h-9.31V743H185l.13-15.5,19.44-9.25Z" transform="translate(-4.13)"/><path fill="#2f3640" d="M229.5,775.17a34.27,34.27,0,0,1,2.56-13.25,33.1,33.1,0,0,1,18-18.12,37.24,37.24,0,0,1,27.78,0,33.48,33.48,0,0,1,10.91,7.31,33.06,33.06,0,0,1,7.09,10.81,34.65,34.65,0,0,1,2.53,13.25,35.67,35.67,0,0,1-2.47,13.28A32.39,32.39,0,0,1,278,806.67a38.46,38.46,0,0,1-28.25,0A32.18,32.18,0,0,1,232,788.52,35.82,35.82,0,0,1,229.5,775.17Zm18.69,0a17.92,17.92,0,0,0,1.25,6.78,16.63,16.63,0,0,0,3.41,5.34,15.49,15.49,0,0,0,5,3.5,15,15,0,0,0,6.09,1.25,15.47,15.47,0,0,0,6.16-1.22,14.45,14.45,0,0,0,4.94-3.47,16.35,16.35,0,0,0,3.28-5.34,19,19,0,0,0,1.19-6.84,19.6,19.6,0,0,0-1.19-7,15.59,15.59,0,0,0-3.28-5.31,14.13,14.13,0,0,0-4.94-3.34,15.42,15.42,0,0,0-6.16-1.09,15.25,15.25,0,0,0-6.09,1.09,14.76,14.76,0,0,0-5,3.34,15.85,15.85,0,0,0-3.41,5.31A18.69,18.69,0,0,0,248.19,775.17Z" transform="translate(-4.13)"/><path fill="#2f3640" d="M307.94,713h36.38a45.62,45.62,0,0,1,12.47,1.69,46.28,46.28,0,0,1,27.72,21.63,47.49,47.49,0,0,1,4.63,11.31,49.86,49.86,0,0,1,0,25.25,48.06,48.06,0,0,1-4.62,11.34,47.24,47.24,0,0,1-7.22,9.63,45.62,45.62,0,0,1-33,13.91H307.94V790.67h7.56V730.23h-7.56Zm28.31,17.19v60.44h7.94a20.19,20.19,0,0,0,9.56-2.37,25,25,0,0,0,7.81-6.47,31.93,31.93,0,0,0,5.25-9.62,35.78,35.78,0,0,0,1.94-11.91,35.32,35.32,0,0,0-1.94-11.81,31.61,31.61,0,0,0-5.25-9.56,24.41,24.41,0,0,0-7.81-6.37,20.64,20.64,0,0,0-9.56-2.31Z" transform="translate(-4.13)"/><path fill="#2f3640" d="M439.38,804.3q-2.19,1.38-4,2.34a22.7,22.7,0,0,1-3.62,1.56,22.38,22.38,0,0,1-3.75.88,29.7,29.7,0,0,1-4.25.28,31.64,31.64,0,0,1-10.41-1.59,22.92,22.92,0,0,1-7.75-4.37,18.94,18.94,0,0,1-4.84-6.56,20.91,20.91,0,0,1,0-16.53,18.14,18.14,0,0,1,5-6.53,23.63,23.63,0,0,1,8-4.25A34.9,34.9,0,0,1,424.5,768a64,64,0,0,1,8.09.47q3.66.47,6.78,1.16v-2a8.94,8.94,0,0,0-.94-4.22,8.08,8.08,0,0,0-2.62-2.94,11.6,11.6,0,0,0-4.06-1.69,23.81,23.81,0,0,0-5.19-.53,41.52,41.52,0,0,0-10.34,1.16,39.34,39.34,0,0,0-8.59,3.34l-6-12.12A53.07,53.07,0,0,1,415,743.92a46.64,46.64,0,0,1,14.78-2.31A44.42,44.42,0,0,1,441,743a22.77,22.77,0,0,1,8.84,4.38,20.49,20.49,0,0,1,5.78,7.91,30.07,30.07,0,0,1,2.09,11.88v23.56h8.69V807.8h-27Zm-14.25-9.69a21.69,21.69,0,0,0,8.06-1.44,23.78,23.78,0,0,0,6.19-3.5v-8.25h-15a9.24,9.24,0,0,0-2.81.44,8.36,8.36,0,0,0-2.47,1.25,6.21,6.21,0,0,0-1.75,2,5.6,5.6,0,0,0-.66,2.75,6.29,6.29,0,0,0,2.09,4.81Q420.87,794.61,425.13,794.61Z" transform="translate(-4.13)"/><path fill="#2f3640" d="M519.91,760a8.27,8.27,0,0,0-2.84-2.41,17.86,17.86,0,0,0-4.59-1.66,27.62,27.62,0,0,0-6.16-.62,19.59,19.59,0,0,0-2.81.22,10.76,10.76,0,0,0-2.78.78,5.93,5.93,0,0,0-2.12,1.53,3.62,3.62,0,0,0-.84,2.47,4.69,4.69,0,0,0,.22,1.44,3.26,3.26,0,0,0,.84,1.31,6.28,6.28,0,0,0,1.72,1.16,11,11,0,0,0,2.84.84l11.75,2.31a52.44,52.44,0,0,1,10.69,3.13,23.63,23.63,0,0,1,6.94,4.38,15,15,0,0,1,3.78,5.56,18.61,18.61,0,0,1,1.16,6.63,18.14,18.14,0,0,1-2.59,9.75,22.4,22.4,0,0,1-6.81,7,32.14,32.14,0,0,1-9.5,4.19,41.25,41.25,0,0,1-10.66,1.41,42,42,0,0,1-6.34-.44,32.07,32.07,0,0,1-5.12-1.19,21.47,21.47,0,0,1-4.06-1.78,23.46,23.46,0,0,1-3.28-2.28H478V786.3h17.69v.38a5.23,5.23,0,0,0,1.13,3.16,8.92,8.92,0,0,0,2.78,2.28,14.41,14.41,0,0,0,3.91,1.41,22,22,0,0,0,4.63.47q5.63,0,8.19-1.47a4.32,4.32,0,0,0,2.56-3.78,4.27,4.27,0,0,0-1.25-3.09,9.18,9.18,0,0,0-4.44-2l-12-2.56q-11.31-2.19-17.06-7.28a16.69,16.69,0,0,1-5.75-13.09,16.94,16.94,0,0,1,2.19-8.53,20.7,20.7,0,0,1,5.94-6.56,28.87,28.87,0,0,1,8.78-4.22,37.56,37.56,0,0,1,10.78-1.5,46.67,46.67,0,0,1,7,.47,38.7,38.7,0,0,1,5.5,1.22,22.06,22.06,0,0,1,4.28,1.78,25.66,25.66,0,0,1,3.28,2.16H537v17.38H520.88A4.92,4.92,0,0,0,519.91,760Z" transform="translate(-4.13)"/><path fill="#2f3640" d="M547,710.55h29.19V749a29,29,0,0,1,8.09-5.28,24.23,24.23,0,0,1,9.72-1.91q11.69,0,17.88,6.53t6.19,19.09v23.19h9.5V807.8H598.63V771.86q0-5.44-2.69-8.56a8.73,8.73,0,0,0-6.94-3.12,14.48,14.48,0,0,0-6.12,1.56,28.5,28.5,0,0,0-6.69,4.56v24.38h9.5V807.8H547V790.67h10v-63H547Z" transform="translate(-4.13)"/><path fill="#44bd32" d="M634.44,797.67a12.12,12.12,0,0,1,12.19-12.19,11.52,11.52,0,0,1,4.66,1,12.52,12.52,0,0,1,3.88,2.63,12.19,12.19,0,0,1,2.56,13.34,12.3,12.3,0,0,1-2.59,3.88,12.49,12.49,0,0,1-3.81,2.59,11.46,11.46,0,0,1-4.69,1,12,12,0,0,1-4.84-1,12.76,12.76,0,0,1-3.87-2.59,11.29,11.29,0,0,1-2.56-3.84A12.51,12.51,0,0,1,634.44,797.67Z" transform="translate(-4.13)"/></svg>