<svg xmlns="http://www.w3.org/2000/svg" viewBox="0 0 608.13 669.93"><title>Logo-17-dark</title><path fill="#44bd32" d="M288,669.93c-6.46-1.49-13.1-1.39-19.64-2.2a301.83,301.83,0,0,1-119.95-41.47c-.18-.11-.29-.34-.62-.73A147.59,147.59,0,0,0,168,611.07c19.53-16.82,33.84-37.52,45.36-60.37,13.11-26,22-53.27,24.85-82.31,3.11-31.37-.41-62.12-9.27-92.31a325.54,325.54,0,0,0-23.35-57.78c-15-29.08-26.31-59.49-30.09-92.1C165.86,143.47,191.62,74.13,255.63,20c10.49-8.88,22.43-15.63,36-18.85,6.49-1.54,12.88-1.64,19.24.78,9,3.42,12.78,11.81,9.07,20.71-2.7,6.48-7.29,11.68-11.73,17-9.78,11.63-19.6,23.2-27.1,36.53-17.41,30.95-16.66,62.49-3.3,94.48,9.44,22.58,23.45,42.25,38.79,61.1,30.78,37.82,59.61,77,83.19,119.84,18.6,33.79,33.21,69.09,40.76,107.1a280.25,280.25,0,0,1,3.23,91.79c-3.3,25-8,49.7-18.58,72.89a126.61,126.61,0,0,1-15,25.56,14.45,14.45,0,0,1-7.19,5.09,325.33,325.33,0,0,1-61.16,13.86c-5.89.75-11.88.58-17.67,2.12Zm71.61-70.85a33.91,33.91,0,1,0-33.92-34A33.94,33.94,0,0,0,359.64,599.08Zm-73.09-67.82a33.91,33.91,0,1,0,33.89,34A34,34,0,0,0,286.55,531.25Zm19.74-28.65a29,29,0,1,0-28.8-29.14A29,29,0,0,0,306.28,502.6Zm62.38-60.29a29,29,0,1,0,28.65,29.28A29.06,29.06,0,0,0,368.66,442.31Zm-70.37-73.86a26,26,0,1,0,25.91,26.28A26,26,0,0,0,298.29,368.45ZM380,386.16a26,26,0,1,0-25.8,26A26,26,0,0,0,380,386.16Zm-53.72-46.38a23.35,23.35,0,1,0-23.15-23.36A23.42,23.42,0,0,0,326.26,339.78Zm-25.42-11.12a23.36,23.36,0,1,0-23.71,23.19A23.46,23.46,0,0,0,300.83,328.66ZM291.67,278a21.1,21.1,0,1,0-21-21.14A21.15,21.15,0,0,0,291.67,278Zm-42-24.86a21.1,21.1,0,1,0,21,21.12A21.13,21.13,0,0,0,249.7,253.13Zm12.65-66.31c-10.89-.2-20,8.11-20.29,18.43a19.77,19.77,0,0,0,19.64,20c10.93.16,20.06-8.14,20.3-18.43A19.77,19.77,0,0,0,262.35,186.82Zm-42.47,9.79c-10.92,0-19.9,8.34-20,18.71-.13,10.78,8.84,19.67,19.91,19.72s20.06-8.5,20-19.08S230.79,196.66,219.88,196.61Zm25-58c-9.93.07-18,8-17.91,17.49s8.3,17.23,18.25,17.16,18-8,17.9-17.49S254.87,138.52,244.89,138.59Zm-38.2,37.64c9.94,0,18.05-7.86,18-17.38s-8.2-17.3-18.14-17.26-18,7.84-18,17.38S196.74,176.26,206.69,176.23ZM242,108.08a15.81,15.81,0,1,0-15.75,15.4A15.68,15.68,0,0,0,242,108.08Zm5.42-51.66c-7.45-.06-13.62,5.67-13.68,12.69S239.78,82,247.21,82s13.61-5.65,13.68-12.68S254.9,56.48,247.45,56.42Zm36.77-15.37c.05-5.57-4.84-10.21-10.81-10.26s-11,4.54-11,10.07,4.86,10.21,10.82,10.26S284.18,46.61,284.23,41.05Z"/><path fill="#2f3640" d="M607.39,347c3,23-3.82,76.48-8.84,95.84a301.46,301.46,0,0,1-31.26,75.8,332,332,0,0,1-32,45.26c-6.41,7.74-13.8,14.55-20.83,21.71-1.4,1.43-2.33,1.33-3.69,0Q489.51,564.21,468.13,543c-2.34-2.31-1-3.6.67-5.2a243.43,243.43,0,0,0,36.73-44.93A238.91,238.91,0,0,0,541.93,356.1a241.7,241.7,0,0,0-8.76-54.54,232.51,232.51,0,0,0-16.41-42.3,243.63,243.63,0,0,0-30.22-45.54,237.26,237.26,0,0,0-64-53.77,229.8,229.8,0,0,0-71.79-26.7,264.82,264.82,0,0,0-56.3-4.5c-2.76.06-5.39,1-8.19.86-2.63-.1-3.57-1.1-3.47-3.65.52-13.85,2.73-27.34,8.64-40a138.16,138.16,0,0,1,12-21.28,4.62,4.62,0,0,1,4.31-2.26A319.27,319.27,0,0,1,350.5,66,292.64,292.64,0,0,1,406,79.82a303.22,303.22,0,0,1,51,23.7,289.28,289.28,0,0,1,45.21,32.06A311.82,311.82,0,0,1,564,208.22a299.59,299.59,0,0,1,24,48.44,294.81,294.81,0,0,1,14.65,50.73,299.91,299.91,0,0,1,4.29,30"/><path fill="#2f3640" d="M2.39,399c-9-53,9.49-119.52,20.65-147a301.14,301.14,0,0,1,42.74-73.45,317.5,317.5,0,0,1,34.51-37.11A288.52,288.52,0,0,1,156.47,101c7.15-3.94,14.52-7.41,21.76-11.16,1.39-.72,2.93-1.16,5.28-2.06-3,6.38-5.63,11.83-8,17.4a214.85,214.85,0,0,0-14.87,50.59c-1,6.28-2.21,12.54-2.23,18.92,0,4.57-3.08,7.07-6.16,9.57a219.87,219.87,0,0,0-29.46,29.37,233.45,233.45,0,0,0-24.57,34.93A229,229,0,0,0,74,309.44a256.44,256.44,0,0,0-6.25,41,217.18,217.18,0,0,0-.44,26.29A242.77,242.77,0,0,0,76,430.53a233,233,0,0,0,16.71,43,235.79,235.79,0,0,0,29.82,44.92,285.32,285.32,0,0,0,20.33,21.61c2.13,2.05,1.8,3.17-.12,5.07q-20.76,20.54-41.3,41.3c-2.15,2.17-3.48,2.31-5.78.09A303.25,303.25,0,0,1,12,447.64C7.48,431.48,4.76,415,2.35,398.5"/><path fill="#2f3640" d="M279.18,40.62a5.83,5.83,0,0,1-11.63-.1,5.83,5.83,0,0,1,11.63.1Z"/><path fill="#2f3640" d="M359.39,588.53c-14.11,0-23.12-9.75-23.12-25,0-12.77,10.42-21.71,25.3-21.71,12.58,0,21.44,10.58,21.43,25.59C383,579,372.37,588.53,359.39,588.53Z"/><path fill="#2f3640" d="M309.88,565.48c0,14.1-9.74,23.05-25.09,23.05-12.72,0-21.64-10.47-21.64-25.37,0-12.51,10.65-21.11,25.65-21.45C297.92,541.49,311.63,552.77,309.88,565.48Z"/><path fill="#2f3640" d="M306.74,454.37c11.44,0,19,7.88,19,19.85,0,11.24-8,18.6-20.22,18.59-10.88,0-18.22-8.16-18.22-20.22C287.28,462,295.46,454.37,306.74,454.37Z"/><path fill="#2f3640" d="M368.52,452.11c11.45,0,19,7.87,19,19.82,0,11.25-8,18.63-20.2,18.62-10.9,0-18.25-8.14-18.24-20.2C349.08,459.78,357.26,452.11,368.52,452.11Z"/><path fill="#2f3640" d="M298.1,411.41c-10.51,0-16.86-6.61-16.85-17.54,0-10.06,6.81-16.38,17.62-16.38,10,0,16.31,6.88,16.3,17.72C315.16,404.85,308.25,411.41,298.1,411.41Z"/><path fill="#2f3640" d="M337,386c0-9.91,7.07-17.21,17.17-17.27,8.49-.05,17.72,7.67,16.91,18.08-.77,10-7,16.3-17.89,16.3C343.57,403.11,337,396.19,337,386Z"/><path fill="#2f3640" d="M340.79,316.59c1.14,7-6.64,14.83-14.39,14.3-8.71-.59-14.27-5.82-14.26-14.79,0-8.46,5.77-14,14.56-14C335.21,302.13,340.79,307.87,340.79,316.59Z"/><path fill="#2f3640" d="M277.63,314.18c7-1.14,14.82,6.64,14.3,14.39-.59,8.71-5.82,14.27-14.79,14.26-8.46,0-14-5.77-14-14.57C263.16,319.75,268.9,314.17,277.63,314.18Z"/><path fill="#2f3640" d="M291.51,269.71c-7.73,0-12.54-5-12.53-13.1,0-7.73,5-12.54,13.1-12.53,7.73,0,12.54,5,12.53,13.1C304.6,264.91,299.57,269.72,291.51,269.71Z"/><path fill="#2f3640" d="M249.4,287c-7.81,0-12.63-5-12.63-13,0-7.81,5-12.63,13-12.63,7.81,0,12.63,5,12.63,13C262.4,282.22,257.43,287.05,249.4,287Z"/><path fill="#2f3640" d="M262,217c-7.12,0-11.71-4.36-11.71-11.07s4.43-10.81,11.85-10.79c7,0,11.54,4.47,11.52,11.25C273.69,212.87,269.19,217,262,217Z"/><path fill="#2f3640" d="M220.11,226.75c-7.44,0-12-4.25-12-11.17,0-6.59,4.46-10.7,11.57-10.69s11.79,4.3,11.79,11S227.12,226.75,220.11,226.75Z"/><path fill="#2f3640" d="M255.62,156c0,5.94-4.25,9.75-10.82,9.71-6.16,0-10.29-4-10.28-9.88s4.25-9.75,10.82-9.71C251.5,146.14,255.63,150.11,255.62,156Z"/><path fill="#2f3640" d="M206.86,149.12c6.17,0,10.33,4,10.32,9.84s-4.23,9.79-10.78,9.76c-6.32,0-10.38-4-10.32-10.21C196.13,152.85,200.45,149.09,206.86,149.12Z"/><path fill="#2f3640" d="M226.05,116c-5.34,0-8.14-2.78-8.12-8s2.78-7.87,8.63-7.83c5.23,0,8,2.89,8,8.17C234.47,113.33,231.54,116,226.05,116Z"/><path fill="#2f3640" d="M247.39,75.25c-4.6-.06-6.95-2.24-6.84-6.38.09-3.68,2.75-5.79,7.16-5.68,4.06.1,6.42,2.33,6.41,6.06C254.1,73.3,251.84,75.31,247.39,75.25Z"/></svg>