<?xml version="1.0" encoding="UTF-8"?>
<svg id="Layer_1" xmlns="http://www.w3.org/2000/svg" version="1.1" viewBox="0 0 608.1 669.9">
  <!-- Generator: Adobe Illustrator 29.3.1, SVG Export Plug-In . SVG Version: 2.1.0 Build 151)  -->
  <defs>
    <style>
      .st0 {
        fill: #2f3640;
      }

      .st1 {
        fill: #6319bf;
      }
    </style>
  </defs>
  <path class="st0" d="M607.4,347c3,23-3.8,76.5-8.8,95.8-6.9,26.6-17.4,52.1-31.3,75.8-9.4,16-20.1,31.1-32,45.3-6.4,7.7-13.8,14.5-20.8,21.7-1.4,1.4-2.3,1.3-3.7,0-14.2-14.3-28.4-28.5-42.6-42.6-2.3-2.3-1-3.6.7-5.2,14-13.5,26.3-28.5,36.7-44.9,25.7-40.9,38.4-88.5,36.4-136.8-.8-18.5-3.8-36.8-8.8-54.5-4.1-14.6-9.6-28.8-16.4-42.3-8.3-16.3-18.5-31.5-30.2-45.5-18-21.6-39.7-39.8-64-53.8-22.3-12.9-46.5-21.9-71.8-26.7-18.6-3.5-37.4-5-56.3-4.5-2.8,0-5.4,1-8.2.9-2.6-.1-3.6-1.1-3.5-3.7.5-13.8,2.7-27.3,8.6-40,3.4-7.4,7.4-14.6,12-21.3.9-1.5,2.6-2.4,4.3-2.3,14.3.2,28.6,1.4,42.8,3.6,18.9,2.8,37.5,7.4,55.5,13.8,17.7,6.3,34.8,14.2,51,23.7,16.1,9.2,31.2,20,45.2,32.1,24.2,20.9,45,45.4,61.8,72.6,9.4,15.4,17.5,31.6,24,48.4,6.4,16.4,11.3,33.4,14.7,50.7,1.9,9.9,3.4,19.9,4.3,30"/>
  <path class="st0" d="M2.4,399c-9-53,9.5-119.5,20.6-147,10.7-26.4,25.1-51.1,42.7-73.4,10.5-13.3,22-25.7,34.5-37.1,17-15.7,35.9-29.3,56.2-40.4,7.1-3.9,14.5-7.4,21.8-11.2,1.4-.7,2.9-1.2,5.3-2.1-3,6.4-5.6,11.8-8,17.4-7,16.2-12,33.2-14.9,50.6-1,6.3-2.2,12.5-2.2,18.9s-3.1,7.1-6.2,9.6c-10.7,8.8-20.6,18.7-29.5,29.4-9.2,10.9-17.5,22.6-24.6,34.9-10.9,19-19.1,39.5-24.2,60.9-3.2,13.5-5.3,27.2-6.2,41-.7,8.7-.8,17.5-.4,26.3.9,18.2,3.8,36.2,8.7,53.8,4.1,14.9,9.7,29.3,16.7,43,8.2,16.1,18.2,31.1,29.8,44.9,6.4,7.6,13.2,14.8,20.3,21.6,2.1,2,1.8,3.2-.1,5.1-13.8,13.7-27.6,27.5-41.3,41.3-2.2,2.2-3.5,2.3-5.8,0-40-37.8-68.9-85.9-83.7-138.9-4.5-16.2-7.2-32.6-9.7-49.1"/>
  <path class="st0" d="M288.3,49.2c0,7.6-6.9,3.9-15.1,3.8s-14.9,3.6-14.8-4,6.9-23.9,15.1-23.8,14.9,16.4,14.8,24Z"/>
  <path class="st0" d="M320.5,611c-51.3,0-84.1-20-84.1-51.4s37.9-44.6,92.1-44.6,78,21.7,78,52.6-38.7,43.4-85.9,43.4h-.1Z"/>
  <path class="st0" d="M338.3,431c47.1,0,78.1,16,78.1,40.2s-32.9,37.8-83,37.8-75-16.5-75-41,33.6-37,79.9-37Z"/>
  <path class="st0" d="M258.4,386.7c0-23.4,26.7-40.5,64.9-40.7,32.1-.1,67,18.1,63.9,42.6-2.9,23.5-26.5,38.4-67.6,38.4s-61.2-16.3-61.2-40.3h0Z"/>
  <path class="st0" d="M359,319.7c4.4,18.7-25.6,39.6-55.5,38.2-33.6-1.6-55.1-15.6-55-39.5,0-22.6,22.3-37.4,56.2-37.4s54.3,15.4,54.3,38.7h0Z"/>
  <path class="st0" d="M268.7,302c-31.1,0-50.4-14.4-50.4-37.3s20.3-35.7,52.6-35.7,50.4,14.4,50.4,37.3-20.2,35.7-52.6,35.7h0Z"/>
  <path class="st0" d="M239.5,244c-29.2,0-48.1-13-48.1-32.9s18.2-32.1,48.7-32.1,47.4,13.3,47.3,33.5c0,19.4-18.5,31.5-47.9,31.5Z"/>
  <path class="st0" d="M267.4,159.2c0,14.6-16.9,23.9-43.1,23.8-24.5,0-41-9.8-40.9-24.2,0-14.6,16.9-23.9,43.1-23.8,24.5,0,41,9.8,40.9,24.2Z"/>
  <path class="st0" d="M228,128c-12.9,0-19.6-7.5-19.6-21.7s6.7-21.4,20.8-21.3c12.6,0,19.3,7.8,19.2,22.2-.1,13.7-7.2,20.9-20.4,20.8Z"/>
  <path class="st0" d="M248.3,85.2c-12.1,0-17-12.4-16.7-20.6.2-7.3,7.3-11.5,18.9-11.2,10.7.2,17,4.6,16.9,12,0,8-7.3,20-19.1,19.9h0Z"/>
  <path class="st1" d="M440.7,458.3c-7.6-38-22.2-73.3-40.8-107.1-23.6-42.8-52.4-82-83.2-119.8-15.3-18.9-29.4-38.5-38.8-61.1-13.4-32-14.1-63.6,3.3-94.5,4.9-8.7,10.7-16.6,16.9-24.3,1.9-2.4,5.7-1.3,6.1,1.7,4.6,34.9-31.8,104,9.4,105.5,35-4.5-.2-63.3,7.6-141h0c1-7.1-2.9-13.3-10.3-16.1-6.3-2.4-12.7-2.3-19.2-.8-13.6,3.3-25.5,10-36,18.9-64,54.1-89.7,123.5-80.1,206.2,3.8,32.6,15.1,63,30.1,92.1,9.7,18.5,17.5,37.8,23.4,57.8,8.9,30.2,12.4,60.9,9.3,92.3-2.9,29-11.8,56.3-24.9,82.3-11.6,22.9-25.9,43.6-45.4,60.4-6.3,5.4-13.1,10.3-20.2,14.5.3.4.4.6.6.7,36.5,22.2,77.4,36.3,119.9,41.5,6.5.8,13.1.7,19.6,2.2h36.2c5.8-1.5,11.8-1.3,17.7-2.1,20.8-2.7,41.3-7.3,61.2-13.9,2.9-.9,5.4-2.7,7.2-5.1,6-7.9,11-16.5,15-25.6,10.6-23.2,15.3-47.9,18.6-72.9,4-30.6,2.9-61.6-3.2-91.8ZM380,386c0,14.3-11.5,25.9-25.8,26h-.2c-14.4,0-26-11.6-26-26s11.6-26,26-26,26,11.6,26,26ZM326.7,293c12.8.1,23.2,10.6,23.1,23.5,0,12.8-10.6,23.2-23.5,23.1h0c-12.8,0-23.1-10.5-23.1-23.3v-.2c0-12.8,10.6-23.2,23.5-23.1ZM298.3,368.3h.2c14.4.2,25.9,11.9,25.7,26.3-.2,14.3-11.8,25.7-26.1,25.7-14.3-.1-25.9-11.7-25.9-26.1,0-14.3,11.7-25.9,26.1-25.9ZM254.2,328.2c0-12.9,10.6-23.2,23.5-23.2,12.9,0,23.2,10.6,23.2,23.5-.2,12.9-10.8,23.3-23.7,23.2-12.8-.2-23-10.7-23-23.5ZM312.9,256.8c0,11.7-9.5,21-21.2,21h0c-11.6-.1-21-9.6-21-21.2.1-11.7,9.5-21.1,21.2-21s21,9.5,21,21.2ZM281.9,206.6c-.2,10.3-9.4,18.6-20.3,18.4h-.1c-10.9-.1-19.6-9.1-19.5-20,.3-10.3,9.4-18.6,20.3-18.4h.1c10.9.1,19.6,9.1,19.5,20ZM227,155.9c0-9.5,8-17.5,17.9-17.5,10,0,18.1,7.7,18.2,17.2,0,9.5-8,17.5-17.9,17.5s-18.1-7.7-18.2-17.2ZM273.4,30.6c6,.1,10.8,4.7,10.8,10.3s-5.1,10.2-11,10.1c-5.9-.1-10.8-4.7-10.8-10.3s5-10.2,11-10.1ZM247.4,56.2h0c7.4,0,13.5,5.9,13.4,12.9-.1,7-6.2,12.7-13.7,12.7s-13.6-5.9-13.5-12.9,6.3-12.7,13.7-12.7ZM226.6,91.7c8.7.2,15.6,7.5,15.4,16.2h.1c-.2,8.6-7.2,15.4-15.8,15.4h-.5c-8.7-.2-15.6-7.5-15.4-16.2s7.5-15.6,16.2-15.4ZM188.6,158.8c0-9.6,8.1-17.4,18-17.4s18,7.8,18.1,17.3c0,9.5-8.1,17.4-18,17.4h0c-10,0-18.2-7.7-18.2-17.3ZM199.9,215.1c0-10.4,9.1-18.7,20-18.7h0c10.9,0,19.8,8.7,19.9,19.3.1,10.6-8.9,19.1-20,19.1s-20-8.9-19.9-19.7ZM228.5,273.9c0-11.7,9.5-21,21.2-21h0c11.6.2,21,9.6,21,21.2,0,11.7-9.5,21-21.2,21-11.7,0-21.1-9.5-21-21.2ZM286.5,599c-18.7,0-33.9-15.2-33.9-33.9s15.2-33.9,33.9-33.9h0c18.8.1,33.9,15.3,33.9,34s-15.2,33.8-33.9,33.8ZM306.3,502.4h0c-16-.2-28.8-13.2-28.8-29.2.1-16,13.2-28.9,29.2-28.8,16,.1,28.9,13.2,28.8,29.2,0,16-13.2,28.9-29.2,28.8ZM359.6,598.9h0c-18.8,0-33.9-15.3-33.9-34s15.2-33.8,33.9-33.8,33.9,15.2,33.9,33.9-15.2,33.9-33.9,33.9ZM367.9,500c-16,0-28.8-13.3-28.6-29.3,0-16,13.3-28.8,29.3-28.6,15.9.2,28.7,13.3,28.6,29.3,0,16-13.3,28.8-29.3,28.6Z"/>
</svg>