<?xml version="1.0" encoding="UTF-8"?>
<svg id="Layer_1" xmlns="http://www.w3.org/2000/svg" version="1.1" viewBox="0 0 608.1 669.9">
  <!-- Generator: Adobe Illustrator 29.3.1, SVG Export Plug-In . SVG Version: 2.1.0 Build 151)  -->
  <defs>
    <style>
      .st0 {
        fill: #f5f6fa;
      }

      .st1 {
        fill: #6319bf;
      }
    </style>
  </defs>
  <path class="st1" d="M288,669.9c-6.5-1.5-13.1-1.4-19.6-2.2-42.5-5.2-83.4-19.3-119.9-41.5-.2-.1-.3-.3-.6-.7,7.1-4.2,13.9-9.1,20.2-14.5,19.5-16.8,33.8-37.5,45.4-60.4,13.1-26,22-53.3,24.9-82.3,3.1-31.4-.4-62.1-9.3-92.3-5.9-20-13.7-39.3-23.4-57.8-15-29.1-26.3-59.5-30.1-92.1-9.6-82.7,16.1-152.1,80.1-206.2,10.5-8.9,22.4-15.6,36-18.9,6.5-1.5,12.9-1.6,19.2.8,9,3.4,12.8,11.8,9.1,20.7-2.7,6.5-7.3,11.7-11.7,17-9.8,11.6-19.6,23.2-27.1,36.5-17.4,30.9-16.7,62.5-3.3,94.5,9.4,22.6,23.5,42.2,38.8,61.1,30.8,37.8,59.6,77,83.2,119.8,18.6,33.8,33.2,69.1,40.8,107.1,6.1,30.2,7.2,61.2,3.2,91.8-3.3,25-8,49.7-18.6,72.9-4,9.1-9,17.7-15,25.6-1.8,2.4-4.3,4.2-7.2,5.1-19.9,6.6-40.4,11.2-61.2,13.9-5.9.8-11.9.6-17.7,2.1h-36.2ZM359.6,599.1c18.7,0,33.9-15.2,33.9-33.9s-15.2-33.9-33.9-33.9c-18.7,0-33.9,15.1-33.9,33.8,0,18.7,15.1,34,33.9,34,0,0,0,0,0,0h0ZM286.5,531.3c-18.7,0-33.9,15.2-33.9,33.9s15.2,33.9,33.9,33.9c18.7,0,33.9-15.1,33.9-33.8,0-18.7-15.1-33.9-33.9-34h0ZM306.3,502.6c16,.1,29.1-12.8,29.2-28.8.1-16-12.8-29.1-28.8-29.2-16-.1-29.1,12.8-29.2,28.8,0,0,0,0,0,0,0,16,12.8,29,28.8,29.1h0ZM368.6,442.3c-16-.2-29.2,12.6-29.3,28.6-.2,16,12.6,29.2,28.6,29.3,16,.2,29.2-12.6,29.3-28.6,0,0,0,0,0,0,.1-16-12.7-29.1-28.6-29.3h0ZM298.3,368.5c-14.4,0-26,11.6-26.1,25.9,0,14.4,11.6,26,25.9,26.1,14.3,0,25.9-11.4,26.1-25.7.2-14.4-11.3-26.1-25.7-26.3,0,0-.1,0-.2,0h0ZM380,386.2c0-14.4-11.6-26-26-26s-26,11.6-26,26,11.6,26,26,26c0,0,.1,0,.2,0,14.3-.1,25.8-11.7,25.8-26ZM326.3,339.8c12.9.1,23.4-10.3,23.5-23.1.1-12.9-10.3-23.4-23.1-23.5-12.9-.1-23.4,10.3-23.5,23.1,0,0,0,.1,0,.2,0,12.8,10.3,23.2,23.1,23.4h0ZM300.9,328.7c0-12.9-10.3-23.4-23.2-23.5-12.9,0-23.4,10.3-23.5,23.2,0,12.8,10.2,23.3,23,23.5,12.9.1,23.5-10.3,23.7-23.2h0ZM291.7,278c11.7,0,21.1-9.3,21.2-21,0-11.7-9.3-21.1-21-21.2s-21.1,9.3-21.2,21c0,0,0,0,0,0,0,11.6,9.4,21.1,21,21.1ZM249.7,253.1c-11.7,0-21.1,9.3-21.2,21s9.3,21.1,21,21.2c11.7,0,21.1-9.3,21.2-21,0,0,0,0,0,0,0-11.6-9.4-21-21-21.1h0ZM262.3,186.8c-10.9-.2-20,8.1-20.3,18.4-.1,10.9,8.6,19.9,19.5,20,0,0,0,0,.1,0,10.9.2,20.1-8.1,20.3-18.4.1-10.9-8.6-19.9-19.5-20,0,0,0,0,0,0h0ZM219.9,196.6c-10.9,0-19.9,8.3-20,18.7-.1,10.8,8.8,19.7,19.9,19.7s20.1-8.5,20-19.1-9-19.3-19.9-19.4h0ZM244.9,138.6c-9.9,0-18,8-17.9,17.5s8.3,17.2,18.2,17.2,18-8,17.9-17.5-8.2-17.3-18.2-17.2h0ZM206.7,176.3c9.9,0,18.1-7.9,18-17.4s-8.2-17.3-18.1-17.3-18,7.8-18,17.4,8.2,17.3,18.2,17.2h0ZM242,108.1c.2-8.7-6.7-16-15.4-16.2-8.7-.2-16,6.7-16.2,15.4-.2,8.7,6.7,16,15.4,16.2.2,0,.3,0,.5,0,8.6,0,15.6-6.8,15.8-15.4ZM247.4,56.4c-7.4,0-13.6,5.7-13.7,12.7s6,12.9,13.5,12.9,13.6-5.7,13.7-12.7-6-12.8-13.4-12.9h0ZM284.2,41.1c0-5.6-4.8-10.2-10.8-10.3s-11,4.5-11,10.1,4.9,10.2,10.8,10.3,11-4.5,11-10.1h0Z"/>
  <path class="st0" d="M607.4,347c3,23-3.8,76.5-8.8,95.8-6.9,26.6-17.4,52.1-31.3,75.8-9.4,16-20.1,31.1-32,45.3-6.4,7.7-13.8,14.5-20.8,21.7-1.4,1.4-2.3,1.3-3.7,0-14.2-14.3-28.4-28.5-42.6-42.6-2.3-2.3-1-3.6.7-5.2,14-13.5,26.3-28.5,36.7-44.9,25.7-40.9,38.4-88.5,36.4-136.8-.8-18.5-3.8-36.8-8.8-54.5-4.1-14.6-9.6-28.8-16.4-42.3-8.3-16.3-18.5-31.5-30.2-45.5-18-21.6-39.7-39.8-64-53.8-22.3-12.9-46.5-21.9-71.8-26.7-18.6-3.5-37.4-5-56.3-4.5-2.8,0-5.4,1-8.2.9-2.6-.1-3.6-1.1-3.5-3.7.5-13.8,2.7-27.3,8.6-40,3.4-7.4,7.4-14.6,12-21.3.9-1.5,2.6-2.4,4.3-2.3,14.3.2,28.6,1.4,42.8,3.6,18.9,2.8,37.5,7.4,55.5,13.8,17.7,6.3,34.8,14.2,51,23.7,16.1,9.2,31.2,20,45.2,32.1,24.2,20.9,45,45.4,61.8,72.6,9.4,15.4,17.5,31.6,24,48.4,6.4,16.4,11.3,33.4,14.7,50.7,1.9,9.9,3.4,19.9,4.3,30"/>
  <path class="st0" d="M2.4,399c-9-53,9.5-119.5,20.6-147,10.7-26.4,25.1-51.1,42.7-73.4,10.5-13.3,22-25.7,34.5-37.1,17-15.7,35.9-29.3,56.2-40.4,7.1-3.9,14.5-7.4,21.8-11.2,1.4-.7,2.9-1.2,5.3-2.1-3,6.4-5.6,11.8-8,17.4-7,16.2-12,33.2-14.9,50.6-1,6.3-2.2,12.5-2.2,18.9,0,4.6-3.1,7.1-6.2,9.6-10.7,8.8-20.6,18.7-29.5,29.4-9.2,10.9-17.5,22.6-24.6,34.9-10.9,19-19.1,39.5-24.2,60.9-3.2,13.5-5.3,27.2-6.2,41-.7,8.7-.8,17.5-.4,26.3.9,18.2,3.8,36.2,8.7,53.8,4.1,14.9,9.7,29.3,16.7,43,8.2,16.1,18.2,31.1,29.8,44.9,6.4,7.6,13.2,14.8,20.3,21.6,2.1,2,1.8,3.2-.1,5.1-13.8,13.7-27.6,27.5-41.3,41.3-2.2,2.2-3.5,2.3-5.8,0-40-37.8-68.9-85.9-83.7-138.9-4.5-16.2-7.2-32.6-9.7-49.1"/>
  <path class="st0" d="M279.2,40.6c-.3,3.2-3.1,5.6-6.3,5.3-2.9-.2-5.2-2.6-5.4-5.4.3-3.2,3.1-5.6,6.3-5.3,2.9.2,5.2,2.6,5.4,5.4Z"/>
  <path class="st0" d="M359.4,588.5c-14.1,0-23.1-9.8-23.1-25s10.4-21.7,25.3-21.7,21.4,10.6,21.4,25.6c0,11.6-10.6,21.1-23.6,21.1Z"/>
  <path class="st0" d="M309.9,565.5c0,14.1-9.7,23-25.1,23s-21.6-10.5-21.6-25.4,10.6-21.1,25.6-21.5c9.1-.2,22.8,11.1,21.1,23.8Z"/>
  <path class="st0" d="M306.7,454.4c11.4,0,19,7.9,19,19.9s-8,18.6-20.2,18.6c-10.9,0-18.2-8.2-18.2-20.2,0-10.6,8.2-18.2,19.4-18.2Z"/>
  <path class="st0" d="M368.5,452.1c11.5,0,19,7.9,19,19.8s-8,18.6-20.2,18.6c-10.9,0-18.2-8.1-18.2-20.2,0-10.6,8.2-18.2,19.4-18.2Z"/>
  <path class="st0" d="M298.1,411.4c-10.5,0-16.9-6.6-16.9-17.5,0-10.1,6.8-16.4,17.6-16.4s16.3,6.9,16.3,17.7c0,9.6-6.9,16.2-17.1,16.2Z"/>
  <path class="st0" d="M337,386c0-9.9,7.1-17.2,17.2-17.3,8.5,0,17.7,7.7,16.9,18.1-.8,10-7,16.3-17.9,16.3s-16.2-6.9-16.2-17.1Z"/>
  <path class="st0" d="M340.8,316.6c1.1,7-6.6,14.8-14.4,14.3-8.7-.6-14.3-5.8-14.3-14.8,0-8.5,5.8-14,14.6-14,8.5,0,14.1,5.8,14.1,14.5Z"/>
  <path class="st0" d="M277.6,314.2c7-1.1,14.8,6.6,14.3,14.4-.6,8.7-5.8,14.3-14.8,14.3-8.5,0-14-5.8-14-14.6,0-8.5,5.8-14.1,14.5-14.1Z"/>
  <path class="st0" d="M291.5,269.7c-7.7,0-12.5-5-12.5-13.1,0-7.7,5-12.5,13.1-12.5,7.7,0,12.5,5,12.5,13.1,0,7.7-5,12.5-13.1,12.5Z"/>
  <path class="st0" d="M249.4,287c-7.8,0-12.6-5-12.6-13s5-12.6,13-12.6,12.6,5,12.6,13-5,12.7-13,12.6Z"/>
  <path class="st0" d="M262,217c-7.1,0-11.7-4.4-11.7-11.1s4.4-10.8,11.8-10.8c7,0,11.5,4.5,11.5,11.2,0,6.5-4.5,10.6-11.7,10.6Z"/>
  <path class="st0" d="M220.1,226.8c-7.4,0-12-4.2-12-11.2s4.5-10.7,11.6-10.7,11.8,4.3,11.8,11-4.3,10.9-11.4,10.9Z"/>
  <path class="st0" d="M255.6,156c0,5.9-4.2,9.8-10.8,9.7-6.2,0-10.3-4-10.3-9.9s4.2-9.8,10.8-9.7c6.2,0,10.3,4,10.3,9.9Z"/>
  <path class="st0" d="M206.9,149.1c6.2,0,10.3,4,10.3,9.8s-4.2,9.8-10.8,9.8c-6.3,0-10.4-4-10.3-10.2,0-5.7,4.4-9.4,10.8-9.4Z"/>
  <path class="st0" d="M226.1,116c-5.3,0-8.1-2.8-8.1-8s2.8-7.9,8.6-7.8c5.2,0,8,2.9,8,8.2,0,5-3,7.7-8.5,7.7Z"/>
  <path class="st0" d="M247.4,75.2c-4.6,0-6.9-2.2-6.8-6.4,0-3.7,2.8-5.8,7.2-5.7,4.1,0,6.4,2.3,6.4,6.1,0,4.1-2.3,6.1-6.7,6Z"/>
</svg>