<?xml version="1.0" ?><svg id="Layer_1" style="enable-background:new 0 0 75 75;" version="1.1" viewBox="0 0 96 96" xml:space="preserve" xmlns="http://www.w3.org/2000/svg" xmlns:xlink="http://www.w3.org/1999/xlink"><style type="text/css">
	.st0{fill:none;stroke:#0097e6;stroke-width:4;stroke-linecap:round;stroke-miterlimit:10;}
	.st1{fill:none;stroke:#0097e6;stroke-width:4;stroke-linecap:round;stroke-linejoin:round;stroke-miterlimit:10;}
	.st2{fill:none;stroke:#0097e6;stroke-width:4;stroke-linejoin:round;stroke-miterlimit:10;}
	.st3{fill:none;stroke:#0097e6;stroke-width:6;stroke-linecap:round;stroke-linejoin:round;stroke-miterlimit:10;}
	.st4{fill:#0097e6;}
	.st5{fill:none;stroke:#0097e6;stroke-width:3.8974;stroke-linejoin:round;stroke-miterlimit:10;}
	.st6{fill:none;stroke:#0097e6;stroke-width:2;stroke-linecap:round;stroke-linejoin:round;stroke-miterlimit:10;}
	.st7{fill:#0097e6;stroke:#0097e6;stroke-width:2;stroke-miterlimit:10;}
	.st8{opacity:0.75;}
	.st9{fill:none;stroke:#0097e6;stroke-width:2;stroke-linejoin:round;stroke-miterlimit:10;}
	.st10{fill:none;stroke:#0097e6;stroke-width:6;stroke-linejoin:round;stroke-miterlimit:10;}
	.st11{fill:none;stroke:#0097e6;stroke-width:3;stroke-linejoin:round;stroke-miterlimit:10;}
	.st12{fill:none;stroke:#0097e6;stroke-width:3.9497;stroke-linejoin:round;stroke-miterlimit:10;}
	.st13{fill:none;stroke:#0097e6;stroke-width:1.9008;stroke-linejoin:round;stroke-miterlimit:10;}
	.st14{fill:none;stroke:#0097e6;stroke-width:1.9935;stroke-linejoin:round;stroke-miterlimit:10;}
	.st15{fill:none;stroke:#0097e6;stroke-width:4;stroke-miterlimit:10;}
	.st16{fill:none;stroke:#0097e6;stroke-width:1.9048;stroke-linecap:round;stroke-linejoin:round;stroke-miterlimit:10;}
	.st17{fill:none;stroke:#0097e6;stroke-width:1.934;stroke-linecap:round;stroke-linejoin:round;stroke-miterlimit:10;}
	.st18{fill:none;stroke:#0097e6;stroke-width:1.9684;stroke-linecap:round;stroke-linejoin:round;stroke-miterlimit:10;}
	.st19{fill:none;stroke:#0097e6;stroke-width:1.9343;stroke-linecap:round;stroke-linejoin:round;stroke-miterlimit:10;}
</style><circle class="st1" cx="60" cy="48" r="30"/><circle class="st1" cx="60" cy="48" r="3"/><path class="st1" d="M60,40L60,40c-1.7,0-3-1.3-3-3V27c0-1.6,1.3-3,3-3h0c1.6,0,3,1.3,3,3v10C63,38.7,61.7,40,60,40z"/><path class="st1" d="M77.2,65.2L77.2,65.2c-1.2,1.2-3.1,1.2-4.2,0l-7.1-7.1c-1.2-1.2-1.2-3.1,0-4.2v0c1.2-1.2,3.1-1.2,4.2,0l7.1,7.1  C78.4,62.1,78.4,64,77.2,65.2z"/><path class="st1" d="M54.2,53.9L54.2,53.9c1.2,1.2,1.2,3.1,0,4.2l-7.1,7.1c-1.2,1.2-3.1,1.2-4.2,0l0,0c-1.2-1.2-1.2-3.1,0-4.2  l7.1-7.1C51.1,52.7,53,52.7,54.2,53.9z"/><g><path class="st1" d="M35,22H24c-2.2,0-4,1.8-4,4v20c0,2.2-1.8,4-4,4H6"/></g></svg>