<svg xmlns="http://www.w3.org/2000/svg" fill="#487eb0" viewBox="0 0 100 100"><path d="M50 5a45 45 0 1 0 0 90 45 45 0 0 0 0-90zM38.75 64.33v2.54a4.22 4.22 0 0 1-8.44 0v-2.54a8.44 8.44 0 0 1 0-14.6v-16.6a4.22 4.22 0 0 1 8.44 0v16.6a8.44 8.44 0 0 1 0 14.6zm15.47-14.07v16.62a4.22 4.22 0 0 1-8.44 0V50.25a8.44 8.44 0 0 1 0-14.59v-2.55a4.22 4.22 0 0 1 8.44 0v2.55a8.44 8.44 0 0 1 0 14.6zm15.47 14.07v2.54a4.22 4.22 0 0 1-8.44 0v-2.54a8.44 8.44 0 0 1 0-14.6v-16.6a4.22 4.22 0 0 1 8.44 0v16.6a8.44 8.44 0 0 1 0 14.6z"/><circle cx="34.53" cy="57.03" r="4.22"/><circle cx="50" cy="42.97" r="4.22"/><circle cx="65.47" cy="57.03" r="4.22"/></svg>