<svg xmlns="http://www.w3.org/2000/svg" xmlns:xlink="http://www.w3.org/1999/xlink" version="1.1" x="0px" y="0px" viewBox="0 0 100 100" style="enable-background:new 0 0 100 100;" xml:space="preserve"><style type="text/css">
	.st0{fill:#c23616;}
</style><g><path class="st0" d="M50,5C25.1,5,5,25.1,5,50c0,24.9,20.1,45,45,45s45-20.1,45-45C95,25.1,74.9,5,50,5z M50,87.5   c-20.7,0-37.5-16.8-37.5-37.5S29.3,12.5,50,12.5S87.5,29.3,87.5,50S70.7,87.5,50,87.5z"/><polygon class="st0" points="61.5,31.5 50,42.9 38.5,31.5 31.5,38.5 42.9,50 31.5,61.5 38.5,68.5 50,57.1 61.5,68.5 68.5,61.5    57.1,50 68.5,38.5  "/></g></svg>