<svg xmlns="http://www.w3.org/2000/svg" viewBox="0 0 78 97.5"><g fill="#4bae50" fill-rule="evenodd"><path d="M38.98 77.8A38.67 38.67 0 0 1 .35 39.19 38.67 38.67 0 0 1 38.98.55a38.67 38.67 0 0 1 38.63 38.63 38.67 38.67 0 0 1-38.63 38.63zm0-71.95A33.37 33.37 0 0 0 5.65 39.18a33.37 33.37 0 0 0 33.33 33.33 33.36 33.36 0 0 0 33.33-33.33A33.36 33.36 0 0 0 38.98 5.85z"/><path d="M33.74 51.96c-.7 0-1.38-.28-1.88-.77l-9.78-9.78a2.65 2.65 0 1 1 3.75-3.75l7.9 7.9 18.4-18.39a2.65 2.65 0 1 1 3.75 3.75L35.6 51.2c-.5.5-1.17.77-1.87.77"/></g></svg>