<svg xmlns="http://www.w3.org/2000/svg" xmlns:xlink="http://www.w3.org/1999/xlink" x="0" y="0" fill="#f5f6fa" enable-background="new 0 0 32 32" version="1.1" viewBox="0 0 32 32" xml:space="preserve"><path d="M16.796,16.274c-0.583,0.194-0.967,0.559-1.038,0.63l-2.401,2.4l-0.66-0.66l2.401-2.401c0.701-0.701,1.279-2.207,0-3.485 c-0.689-0.689-1.58-0.918-2.448-0.63c-0.583,0.194-0.967,0.559-1.038,0.63l-2.42,2.42c-0.556-0.46-1.111-0.584-1.496-0.584 c-0.999,0-1.704,0.676-1.781,0.753l-1.554,1.554c-1.434,1.434-2.224,3.34-2.224,5.368c0,1.69,0.556,3.292,1.569,4.61l-1.418,1.419 c-0.39,0.391-0.39,1.024,0,1.414c0.195,0.195,0.451,0.293,0.707,0.293s0.512-0.098,0.708-0.293l1.417-1.418 c1.318,1.012,2.919,1.568,4.608,1.568c2.028,0,3.935-0.79,5.368-2.224l1.554-1.554c0.689-0.689,0.919-1.581,0.63-2.447 c-0.124-0.372-0.312-0.651-0.454-0.831l2.416-2.416c0.071-0.07,0.436-0.455,0.63-1.038c0.289-0.866,0.06-1.758-0.63-2.447 S17.662,15.984,16.796,16.274z M13.014,14.185c0.355-0.329,0.551-0.13,0.67-0.012c0.118,0.118,0.315,0.316,0,0.657l-2.4,2.4 l-0.657-0.657L13.014,14.185z M5.775,26.224c-1.056-1.057-1.638-2.461-1.638-3.954c0-0.911,0.24-1.777,0.649-2.564l7.506,7.506 c-0.786,0.409-1.653,0.649-2.564,0.649C8.236,27.861,6.832,27.279,5.775,26.224z M15.237,24.67l-1.329,1.329L6,18.091l1.317-1.317 c0.061-0.056,0.24-0.18,0.379-0.18c0.081,0,0.179,0.057,0.29,0.167l7.239,7.239C15.553,24.354,15.355,24.552,15.237,24.67z M17.829,18.976l-2.401,2.401l-0.658-0.658l2.388-2.389c0.354-0.326,0.551-0.131,0.67-0.012 C17.947,18.437,18.145,18.635,17.829,18.976z M29.709,3.707c0.391-0.391,0.391-1.024,0-1.415c-0.391-0.39-1.023-0.39-1.414,0 l-1.418,1.419c-1.318-1.013-2.919-1.568-4.608-1.568c-2.028,0-3.935,0.79-5.368,2.224L15.346,5.92c-1.279,1.279-0.701,2.786,0,3.486 l7.25,7.25c0.623,0.623,1.271,0.753,1.704,0.753c1,0,1.704-0.676,1.781-0.753l1.554-1.554c2.72-2.72,2.933-7.003,0.655-9.977 L29.709,3.707z M26.221,5.781c0,0,0,0.001,0.001,0.001c0,0,0.001,0,0.001,0.001c1.762,1.763,2.073,4.409,0.986,6.513l-7.503-7.503 c0.786-0.409,1.652-0.649,2.564-0.649C23.761,4.143,25.164,4.725,26.221,5.781z M24.301,15.41c-0.081,0-0.179-0.056-0.29-0.167 l-7.25-7.25c-0.329-0.329-0.09-0.568,0-0.657l1.33-1.329l7.908,7.908l-1.318,1.318C24.619,15.287,24.439,15.41,24.301,15.41z"/></svg>