<svg xmlns="http://www.w3.org/2000/svg" fill="#f5f6fa" viewBox="0 0 512 512"><path d="M467.7 348.9H302.5V198.7a104 104 0 0 0 57.8-92.9 104.2 104.2 0 1 0-208.6.1 104 104 0 0 0 57.8 92.9v150.1H44.3C21 348.9 2 367.9 2 391.2v76.5C2 491 21 510 44.3 510h423.3c23.3 0 42.3-19 42.3-42.3v-76.5a42.2 42.2 0 0 0-42.2-42.3zm-287.8-243A76 76 0 0 1 256 30.2c42 0 76.1 33.9 76.1 75.7S298 181.5 256 181.5c-42 0-76.1-33.9-76.1-75.6zm57.8 102.2a99.6 99.6 0 0 0 36.6 0v140.8h-36.5V208.1zm244.1 259.6a14 14 0 0 1-14.1 14.1H44.3a14 14 0 0 1-14.1-14.1v-76.5a14 14 0 0 1 14.1-14.1h423.3a14 14 0 0 1 14.1 14.1v76.5z"/><path d="M350.8 402.9h-19.2a14 14 0 1 0 0 28.2h19.2a14 14 0 1 0 0-28.2zM438.3 402.9h-19.2a14 14 0 1 0 0 28.2h19.2a14 14 0 1 0 0-28.2z"/></svg>