<svg xmlns="http://www.w3.org/2000/svg" x="0" y="0" fill="#c23616" data-name="Layer 1" viewBox="0 0 100 100"><path d="M80.17,26.27H61.59V24.78a8,8,0,0,0-8-8H46.41a8,8,0,0,0-8,8v1.49H19.83a3,3,0,0,0,0,6h5.95l.07,38a13,13,0,0,0,13,13H61.15a13,13,0,0,0,13-13l.07-38h5.95a3,3,0,1,0,0-6ZM44.41,24.78a2,2,0,0,1,2-2h7.18a2,2,0,0,1,2,2v1.49H44.41ZM68.15,70.23a7,7,0,0,1-7,7H38.85a7,7,0,0,1-7-7l-.07-38H68.22Z"/><path d="M44,41.53a3,3,0,0,0-3,3v19.9a3,3,0,0,0,6,0V44.53A3,3,0,0,0,44,41.53Z"/><path d="M56,41.53a3,3,0,0,0-3,3v19.9a3,3,0,0,0,6,0V44.53A3,3,0,0,0,56,41.53Z"/></svg>