<svg xmlns="http://www.w3.org/2000/svg" viewBox="0 0 100 100"><switch><g><g fill="#c23616"><path d="M90.1 17.4H65.5v-3.7c0-6.2-5.1-11.3-11.3-11.3h-8.5c-6.2 0-11.3 5.1-11.3 11.3v3.7H9.9c-2 0-3.6 1.6-3.6 3.6s1.6 3.6 3.6 3.6h80.2c2 0 3.6-1.6 3.6-3.6s-1.6-3.6-3.6-3.6zm-48.4-3.6c0-2.2 1.8-4.1 4.1-4.1h8.5c2.2 0 4.1 1.8 4.1 4.1v3.7H41.7v-3.7zM83.2 32.3c-2 0-3.6 1.6-3.6 3.6v49c0 3-2.4 5.4-5.4 5.4H25.8c-3 0-5.4-2.4-5.4-5.4v-49c0-2-1.6-3.6-3.6-3.6s-3.6 1.6-3.6 3.6v49c0 6.9 5.6 12.6 12.6 12.6h48.5c6.9 0 12.6-5.6 12.6-12.6v-49c-.1-2-1.7-3.6-3.7-3.6z"/><path d="M33.9 74.5c.7.7 1.6 1.1 2.5 1.1s1.8-.4 2.5-1.1l11.1-11 11 11c.7.7 1.6 1.1 2.5 1.1.9 0 1.8-.4 2.5-1.1a3.6 3.6 0 000-5.1l-10.9-11 11.1-11.1a3.6 3.6 0 000-5.1 3.6 3.6 0 00-5.1 0L50 53.3 38.9 42.2a3.6 3.6 0 00-5.1 0 3.6 3.6 0 000 5.1l11.1 11.1-11 11a3.6 3.6 0 000 5.1z"/></g></g></switch></svg>