<?xml version="1.0" encoding="utf-8"?>
<svg viewBox="0 0 435 435" xmlns="http://www.w3.org/2000/svg">
  <g transform="matrix(0.999939, 0, 0, 1, -131.743332, -62.276821)">
    <path d="m344.11 316.16c-16.816 25.227-57.176 45.406-84.086 57.176-8.4102 5.0469 3.3633 15.137 8.4102 18.5 36.996 30.27 110.99 43.723 126.12-15.137 3.3633-20.18-1.6836-42.043-25.227-65.586-6.7266 3.3633-16.816 5.0469-25.227 5.0469zm6.7266-72.312c18.5-38.68 45.406-57.176 72.312-58.859 73.992-8.4102 105.95 79.039 80.723 141.26-3.3633 11.773-10.09 21.863-18.5 26.906-10.09 8.4102-23.543 8.4102-33.633-3.3633-15.137-16.816-40.359-42.043-62.223-50.449 25.227 28.59 31.953 57.176 26.906 82.402-18.5 70.629-110.99 72.312-161.44 28.59-18.5-13.453-33.633-47.086-5.0469-57.176 21.863-10.09 60.539-28.59 73.992-48.77l-1.6836-1.6836c-63.902 18.5-124.45-15.137-114.36-82.402 5.0469-35.316 28.59-68.949 75.676-87.449 20.18-8.4102 57.176-5.0469 52.133 25.227-1.6836 25.227-5.0469 62.223 6.7266 87.449 3.3633 0 5.0469-1.6836 8.4102-1.6836zm35.316 30.27c30.27 6.7266 60.539 38.68 82.402 60.539 6.7266 6.7266 13.453-10.09 15.137-15.137 18.5-47.086-1.6836-117.72-58.859-112.67-18.5 1.6836-38.68 15.137-52.133 45.406 6.7266 5.0469 11.773 13.453 13.453 21.863zm-21.863 6.7266c0-8.4102-6.7266-13.453-13.453-13.453-8.4102 0-13.453 5.0469-13.453 13.453 0 6.7266 5.0469 13.453 13.453 13.453 6.7266 0 13.453-6.7266 13.453-13.453zm-42.043-23.543c-13.453-28.59-15.137-77.355-8.4102-104.27-1.6836-3.3633-18.5 0-20.18 1.6836-31.953 11.773-58.859 33.633-63.902 67.266-6.7266 52.133 38.68 72.312 84.086 60.539 0-10.09 3.3633-18.5 8.4102-25.227zm28.59-193.39c119.4 0 215.25 97.539 215.25 216.94 0 119.4-95.855 215.25-215.25 215.25-119.4 0-216.94-95.855-216.94-215.25 0-119.4 97.539-216.94 216.94-216.94zm0 21.863c-107.63 0-195.07 87.449-195.07 195.07 0 105.95 87.449 193.39 195.07 193.39 105.95 0 193.39-87.449 193.39-193.39 0-107.63-87.449-195.07-193.39-195.07z" style="fill: rgb(0, 151, 230);"/>
  </g>
</svg>