<?xml version="1.0" encoding="UTF-8"?>
<svg version="1.1" viewBox="170 90 400 410" xmlns="http://www.w3.org/2000/svg" xmlns:xlink="http://www.w3.org/1999/xlink">
 <g>
  <path d="m321.44 272.72c-1.6797 0-2.8008 0-4.4805-0.55859h-0.5625c-38.078-8.9609-64.398-42.559-64.398-81.199 0-37.52 27.441-71.68 64.961-81.199h0.55859c7.2812-1.1211 14.559 0.55859 19.602 5.0391 5.0391 4.4805 7.8398 10.641 7.8398 17.922v116.48c0 7.2812-2.8008 13.441-7.8398 17.922-4.4805 3.9141-10.082 5.5938-15.68 5.5938zm-1.1211-16.797c2.2383 0.55859 4.4805 0 5.6016-1.1211 1.1211-1.1211 2.2383-2.8008 2.2383-5.0391v-117.04c0-2.2383-0.55859-3.9219-2.2383-5.0391-1.6797-1.1211-3.3594-1.6797-5.6016-1.1211-29.68 7.8398-51.52 34.719-51.52 64.398 0 31.363 20.719 57.121 51.52 64.965z" style="fill: rgb(0, 151, 230); stroke: rgb(0, 151, 230); stroke-width: 7px;"/>
  <path d="m378.56 450.8c-5.6016 0-11.199-1.6797-15.121-5.6016-5.0391-4.4805-7.8398-10.641-7.8398-17.922l0.003906-116.48c0-7.2812 2.8008-13.441 7.8398-17.922 5.0391-4.4805 12.32-6.1602 19.602-5.0391h0.55859c38.078 8.9609 64.398 42.559 64.398 81.199 0 37.52-27.441 71.68-64.961 81.199h-0.55859c-1.1211 0-2.8008 0.5625-3.9219 0.5625zm0-146.72c-1.6797 0-3.3594 0.55859-4.4805 1.6797-1.1211 1.1211-2.2383 2.8008-2.2383 5.0391v116.48c0 2.2383 0.55859 3.9219 2.2383 5.0391 1.6797 1.1211 3.3594 1.6797 5.6016 1.1211 29.68-7.8398 51.52-34.719 51.52-64.398 0-31.359-20.719-57.121-51.52-64.398-0.55859-0.5625-0.55859-0.5625-1.1211-0.5625z" style="fill: rgb(0, 151, 230); stroke: rgb(0, 151, 230); stroke-width: 7px;"/>
  <path d="m497.28 274.96h-116.48c-7.2812 0-13.441-2.8008-17.922-7.8398-4.4805-5.0391-6.1602-12.32-5.0391-19.602v-0.55859c8.9609-38.641 42.559-64.961 81.199-64.961 37.52 0 71.68 27.441 81.199 64.961v0.55859c1.1211 7.2812-0.55859 14.559-5.0391 19.602-4.4805 5.0391-10.641 7.8398-17.918 7.8398zm-123.2-24.641c-0.55859 2.2383 0 4.4805 1.1211 5.6016 1.1211 1.1211 2.8008 2.2383 5.0391 2.2383h116.48c2.2383 0 3.9219-0.55859 5.0391-2.2383 1.1211-1.6797 1.6797-3.3594 1.1211-5.6016-7.8398-29.68-34.719-51.52-64.398-51.52-30.801 0-56.559 20.719-64.402 51.52z" style="fill: rgb(0, 151, 230); stroke: rgb(0, 151, 230); stroke-width: 7px;"/>
  <path d="m260.96 378c-37.52 0-71.68-27.441-81.199-64.961v-0.55859c-1.1211-7.2812 0.55859-14.559 5.0391-19.602 4.4805-5.0391 10.641-7.8398 17.922-7.8398h116.48c7.2812 0 13.441 2.8008 17.922 7.8398 4.4805 5.0391 6.1602 12.32 5.0391 19.602v0.55859c-8.9648 38.641-42.562 64.961-81.203 64.961zm-64.402-68.32c7.8398 29.68 34.719 51.52 64.398 51.52 31.359 0 57.121-20.719 64.398-51.52 0.55859-2.2383 0-4.4805-1.1211-5.6016s-2.8008-2.2383-5.0391-2.2383h-116.48c-2.2383 0-3.9219 0.55859-5.0391 2.2383-1.1211 1.6836-1.6797 3.3633-1.1211 5.6016z" style="fill: rgb(0, 151, 230); stroke: rgb(0, 151, 230); stroke-width: 7px;"/>
 </g>
</svg>
