<svg xmlns="http://www.w3.org/2000/svg" id="Layer_1" viewBox="9 0 92 92"><style>.st1{fill:none;stroke:#0097e6;stroke-width:4;stroke-linecap:round;stroke-linejoin:round;stroke-miterlimit:10}</style><circle cx="60" cy="48" r="30" class="st1"/><circle cx="60" cy="48" r="3" class="st1"/><path d="M60 40a3 3 0 0 1-3-3V27a3 3 0 0 1 3-3 3 3 0 0 1 3 3v10a3 3 0 0 1-3 3zM77.2 65.2a2.9 2.9 0 0 1-4.2 0l-7.1-7.1a2.9 2.9 0 0 1 0-4.2 2.9 2.9 0 0 1 4.2 0l7.1 7.1c1.2 1.1 1.2 3 0 4.2zM54.2 53.9a2.9 2.9 0 0 1 0 4.2l-7.1 7.1a2.9 2.9 0 0 1-4.2 0 2.9 2.9 0 0 1 0-4.2l7.1-7.1c1.1-1.2 3-1.2 4.2 0zM35 22H24a4 4 0 0 0-4 4v20a4 4 0 0 1-4 4H6" class="st1"/></svg>