<svg xmlns="http://www.w3.org/2000/svg" stroke="#f5f6fa" stroke-width="2.5" viewBox="0 0 100 100"><path d="M27.3 31.6c-3.1 0-4.8 6.7-4.8 13.3 0 6.6 1.7 13.3 4.8 13.3s4.9-6.7 4.9-13.3c0-6.6-1.7-13.3-4.9-13.3zm0 24.7c-1 0-2.9-4-2.9-11.4s2-11.4 3-11.4 2.9 4 2.9 11.4-2 11.4-3 11.4z"/><path stroke-width="2" d="M42.8 26.4a1 1 0 0 0-.4 1.2c0 .1 5.3 12.4 0 34.1a1 1 0 0 0 1.7.5c5.6-22.4.2-34.8 0-35.4a1 1 0 0 0-1.3-.4zM48 22.7a1 1 0 1 0-1.7 1s5 9 3.4 22.4a1 1 0 1 0 1.9.2A41.5 41.5 0 0 0 48 22.7zM55.9 62.9h.2a1 1 0 0 0 .9-.8c4-18.2.5-28.4.4-28.8a1 1 0 0 0-1.8.6s.9 2.6 1.2 7.2c.4 4.3.3 11.4-1.6 20.6-.2.5.2 1 .7 1.2z"/><path d="M84.2 91.1c-5.3-3.7-12.6-3.2-19.6-2.8-5.4.4-10.6.7-14.5-1-7.2-3-8.3-11.8-8.5-14.3h11.7c2.3 6.6 5.2 10 8.6 10 7.9 0 12.6-19.3 12.6-38S69.8 6.7 61.9 6.7c-3.4 0-6.3 3.5-8.6 10H36.7l-.3.1c-2.1-6.1-5-10.1-8.6-10.1-7.9 0-12.6 19.4-12.6 38.1S19.9 83 27.8 83c3.6 0 6.5-4 8.6-10h3.3c.1 1 .3 3.4 1.2 6 1.6 5 4.5 8.4 8.5 10.1 4.3 1.8 9.6 1.5 15.4 1.1 6.6-.4 13.5-.9 18.3 2.5a1 1 0 0 0 1.3-.2c.3-.5.2-1-.2-1.4zM61.9 8.7c5.2 0 10.7 14.5 10.7 36.2S67.1 81.2 62 81.2c-2.3 0-4.7-3-6.6-8.2h4.3C65 73 68 58.5 68 45s-3-28.1-8.5-28.1h-4.3c1.9-5.3 4.3-8.2 6.6-8.2zM27.8 81.2C22.6 81.2 17 66.6 17 44.9S22.6 8.7 27.8 8.7s10.7 14.5 10.7 36.2S33 81.2 27.8 81.2zm12.6-36.3c0-9.4-1.2-19-3.4-26.1h22.6c1.1 0 3 1.9 4.4 7.2 1.4 5 2.2 11.8 2.2 19s-.8 13.8-2.2 18.8c-1.5 5.4-3.3 7.3-4.4 7.3h-5.3a1 1 0 0 0-.9 0H37a95.3 95.3 0 0 0 3.4-26.2z"/></svg>