<?xml version="1.0" encoding="utf-8"?>
<svg viewBox="0 0 700 700" xmlns="http://www.w3.org/2000/svg">
  <g>
    <path d="M 558.374 436.339 L 133.764 436.339 C 120.307 436.339 109.343 447.303 109.343 460.76 C 109.343 474.216 120.307 485.181 133.764 485.181 L 557.875 485.181 C 571.333 485.181 582.296 474.216 582.296 460.76 C 582.296 447.303 571.829 436.339 558.371 436.339 L 558.374 436.339 Z" style="stroke-width: 2px; fill: rgb(225, 177, 44); stroke: rgb(53, 59, 72);"/>
    <path d="M 196.893 363.243 L 205.364 382.679 C 209.353 392.149 218.321 397.631 228.291 397.631 C 231.281 397.631 234.772 397.133 237.761 395.639 C 250.221 390.156 256.2 375.706 250.718 363.246 L 242.246 343.806 C 236.267 330.35 238.756 314.404 247.728 302.938 C 271.152 273.536 274.142 232.17 254.208 200.274 L 244.241 183.828 C 237.265 172.367 221.816 168.877 210.354 175.854 C 198.893 182.832 195.402 198.28 202.379 209.741 L 212.346 226.188 C 221.315 240.638 219.821 259.081 209.357 272.038 C 188.919 297.957 183.938 332.842 196.893 363.239 L 196.893 363.243 Z" style="stroke-width: 2px; fill: rgb(225, 177, 44); stroke: rgb(53, 59, 72);"/>
    <path d="M 314.508 363.243 L 322.979 382.679 C 326.968 392.149 335.936 397.631 345.906 397.631 C 348.896 397.631 352.387 397.133 355.376 395.639 C 367.835 390.156 373.815 375.706 368.333 363.246 L 359.861 343.806 C 353.881 330.35 356.371 314.404 365.344 302.938 C 388.767 273.536 391.757 232.17 371.823 200.274 L 361.856 183.828 C 354.88 172.367 339.431 168.877 327.969 175.854 C 316.508 182.832 313.017 198.28 319.994 209.741 L 329.961 226.188 C 338.929 240.638 337.436 259.081 326.972 272.038 C 306.534 297.957 301.552 332.842 314.509 363.239 L 314.508 363.243 Z" style="stroke-width: 2px; fill: rgb(225, 177, 44); stroke: rgb(53, 59, 72);"/>
    <path d="M 432.622 363.243 L 441.093 382.679 C 445.08 392.149 454.049 397.631 464.019 397.631 C 467.009 397.631 470.5 397.133 473.489 395.639 C 485.949 390.156 491.928 375.706 486.446 363.246 L 477.477 343.806 C 471.498 330.35 473.987 314.404 482.96 302.938 C 506.383 273.536 509.373 232.17 489.44 200.274 L 479.473 183.828 C 472.496 172.367 457.047 168.877 445.586 175.854 C 434.124 182.831 430.634 198.28 437.611 209.741 L 447.578 226.188 C 456.546 240.638 455.051 259.081 444.588 272.038 C 424.15 297.957 419.666 332.842 432.622 363.239 L 432.622 363.243 Z" style="stroke-width: 2px; fill: rgb(225, 177, 44); stroke: rgb(53, 59, 72);"/>
    <ellipse style="fill: none; stroke: rgb(225, 177, 44); stroke-width: 38px;" cx="349.459" cy="349.787" rx="329.417" ry="329.417"/>
  </g>
</svg>