<svg xmlns="http://www.w3.org/2000/svg" viewBox="0 0 100 100"><switch><g><g fill="#e1b12c"><path d="M59.5 10.8l-1.5-2c-.5-.6-1.3-.8-2.1-.7a2.2 2.2 0 00-1.7 2.6l.2.9.4 1.3.3 1.4a9 9 0 01-1 5.3L52.5 23a18 18 0 00-1.8 8.6 14 14 0 003.5 8.1c.6.7 1.6 1 2.5.7 1.2-.4 1.8-1.7 1.4-3v-.1c-.8-2.2-1.3-4.1-1.1-5.9.1-1.8.7-3.6 1.7-5.8l1.4-3.4a13.5 13.5 0 00-.6-11.4zM75 10.8l-1.5-2a2.2 2.2 0 00-3.8 2l.2.9.4 1.3.3 1.4a9 9 0 01-1 5.3L68 23.1a17.5 17.5 0 00-1.8 8.6 14 14 0 003.5 8.1c.6.7 1.6 1 2.5.7 1.2-.4 1.8-1.7 1.4-3v-.1c-.8-2.2-1.3-4.1-1.1-5.9.1-1.8.7-3.6 1.7-5.8l1.4-3.4a13.5 13.5 0 00-.6-11.5zM91.5 13A11.5 11.5 0 0089 8.9c-.5-.6-1.3-.8-2.1-.7a2.2 2.2 0 00-1.7 2.6l.2.9.4 1.3.3 1.4a9 9 0 01-1 5.3l-1.6 3.4a18 18 0 00-1.8 8.6 14 14 0 003.5 8.1c.6.7 1.6 1 2.5.7 1.2-.4 1.8-1.7 1.4-3v-.1c-.8-2.2-1.3-4.1-1.1-5.9.1-1.8.7-3.6 1.7-5.8l1.4-3.4a13.5 13.5 0 00.4-9.3zM41.3 61.7V16.2c0-6.4-4.3-12.1-10.5-13.4a13.3 13.3 0 00-16.1 13v45.9c0 .4-.2.8-.5 1a20 20 0 1027.6 0c-.4-.2-.5-.6-.5-1zM23.6 92a14.8 14.8 0 01-9.1-7.5A15 15 0 0119 65.2c.4-.3.6-.7.6-1.1V16.3c0-4.4 3.2-8.5 7.6-8.9 5-.5 9.3 3.5 9.3 8.4V64c0 .5.2.9.6 1.1 3.8 2.8 6.2 7.4 6.2 12.2A15.4 15.4 0 0123.6 92z"/><path d="M31.5 67.7V25.4c0-2-1.6-3.6-3.6-3.6s-3.6 1.6-3.6 3.6v42.3a10.4 10.4 0 107.2 0z"/></g></g></switch></svg>