<svg xmlns="http://www.w3.org/2000/svg" fill="#f5f6fa" data-name="Layer 1" viewBox="0 0 100 100"><path d="M50 9A41 41 0 1 1 9 50 41 41 0 0 1 50 9m0-9a50 50 0 1 0 50 50A50 50 0 0 0 50 0z"/><path d="M49.2 63a7.2 7.2 0 0 0-7 7 7 7 0 0 0 14 0 7.2 7.2 0 0 0-7-7zm15.1-33a19 19 0 0 0-29.2-.3c-3.3 3.8-2.9 4.1.7 6.7s3.6 3.7 7.2-.5a8 8 0 0 1 10.7-1.7c3.1 2 3.2 5 .2 7-1.8 1.3-3.8 2.3-5.7 3.5a10 10 0 0 0-5 9.3c.2 1.7.9 2.6 2.7 2.6H52.7a2 2 0 0 0 2.3-2.1c-.1-2.3 1.3-3.3 3-4.3l3.7-2.2c7-4.6 6.5-13.2 2.6-18z"/></svg>