<?xml version="1.0" encoding="utf-8"?>
<svg viewBox="0 0 24 24" xmlns="http://www.w3.org/2000/svg">
  <path d="M 8.334 4.514 L 15.814 4.514 L 15.814 8.253 L 17.31 8.253 L 17.31 12.741 L 15.44 12.741 L 12.822 15.733 L 11.327 15.733 L 8.709 12.741 L 6.839 12.741 L 6.839 8.253 L 8.334 8.253 L 8.334 4.514 M 10.578 19.473 L 4.596 19.473 L 4.596 17.977 L 10.578 17.977 C 10.992 17.977 11.327 17.643 11.327 17.229 L 11.327 16.483 L 12.822 16.483 L 12.822 17.229 C 12.822 18.469 11.818 19.473 10.578 19.473 M 8.334 9.75 L 8.334 11.247 L 9.457 11.247 L 12.075 14.238 L 14.693 11.247 L 15.814 11.247 L 15.814 9.75 L 14.32 9.75 L 14.32 6.011 L 9.832 6.011 L 9.832 9.75 L 8.334 9.75 Z" style="stroke-miterlimit: 5; stroke-linejoin: round; stroke-width: 0.22px; paint-order: fill markers; fill: rgb(194, 54, 22); stroke: rgb(53, 59, 72);"/>
  <path d="M 9.313 4.341 L 17.256 4.341 L 17.256 8.112 L 18.765 8.112 L 18.765 13.438 L 16.661 13.438 L 14.06 16.41 L 14.239 16.41 L 14.239 17.564 C 14.222 18.271 13.919 18.987 13.459 19.447 C 13.228 19.678 12.92 19.888 12.613 20.018 C 12.307 20.147 11.732 20.195 11.732 20.195 C 11.71 20.202 11.636 19.924 11.576 19.702 L 11.576 20.227 L 5.142 20.227 L 5.142 17.918 L 11.576 17.918 C 11.703 17.935 11.741 17.9 11.827 17.814 C 11.913 17.728 11.949 17.691 11.931 17.564 L 11.931 16.41 L 12.11 16.41 L 9.51 13.438 L 7.405 13.438 L 7.405 8.112 L 8.913 8.112 L 8.913 4.741 L 9.313 4.741 Z M 9.713 8.912 L 8.205 8.912 L 8.205 12.638 L 9.872 12.638 L 12.513 15.655 L 13.657 15.655 L 16.298 12.638 L 17.965 12.638 L 17.965 8.912 L 16.456 8.912 L 16.456 5.141 L 9.713 5.141 Z M 11.496 19.435 C 11.496 19.435 11.496 19.435 11.496 19.435 C 11.496 19.435 11.496 19.435 11.496 19.435 Z M 11.952 19.389 C 12.079 19.363 12.184 19.33 12.301 19.281 C 12.536 19.182 12.715 19.06 12.893 18.881 C 13.252 18.522 13.456 18.107 13.439 17.564 L 13.439 17.21 L 12.731 17.21 L 12.731 17.564 C 12.713 17.854 12.58 18.194 12.392 18.38 C 12.205 18.567 11.866 18.701 11.576 18.718 L 5.942 18.718 L 5.942 19.427 L 11.576 19.427 L 11.576 19.43 C 11.682 19.422 11.864 19.407 11.952 19.389 Z M 10.422 9.621 L 10.422 5.85 L 15.748 5.85 L 15.748 9.621 L 17.256 9.621 L 17.256 11.93 L 15.907 11.93 L 13.085 15.154 L 10.264 11.93 L 8.913 11.93 L 8.913 9.621 Z M 11.222 10.421 L 9.713 10.421 L 9.713 11.13 L 10.627 11.13 L 13.085 13.94 L 15.544 11.13 L 16.456 11.13 L 16.456 10.421 L 14.948 10.421 L 14.948 6.65 L 11.222 6.65 Z" style="fill: none;"/>
  <ellipse style="fill: none; stroke-width: 1.23px; stroke: rgb(194, 54, 22);" cx="12" cy="12" rx="11.293" ry="11.293"/>
</svg>