<svg xmlns="http://www.w3.org/2000/svg" id="Layer_1" viewBox="0 0 96 96"><style>.st1{fill:none;stroke:#c23616;stroke-width:4;stroke-linecap:round;stroke-linejoin:round;stroke-miterlimit:10}</style><path d="M61 66h14a3 3 0 0 1 3 3 3 3 0 0 1-3 3H21a3 3 0 0 1-3-3 3 3 0 0 1 3-3h29M54.7 92H41.3L34 78h28zM64 66h.5c1.9 0 3.5-1.6 3.5-3.5V56H52s-3 .8-3-3c0-2.9 3-3 3-3h16v-5h-9s-3 0-3-3c0-2.9 3-3 3-3h9v-9.5c0-1.9-1.6-3.5-3.5-3.5h-33a3.5 3.5 0 0 0-3.5 3.5v33c0 1.9 1.6 3.5 3.5 3.5h.5M37.7 17h8.6l4.7 9H33z" class="st1"/><path fill="none" stroke="#c23616" stroke-linejoin="round" stroke-miterlimit="10" stroke-width="4" d="M42 14v-3c0-1.6 1.8-3 4-3h4c2.2 0 4-1.3 4-3V2"/></svg>