<?xml version="1.0" ?><svg id="Layer_1" style="enable-background:new 0 0 96 96;" version="1.1" viewBox="0 0 96 96" xml:space="preserve" xmlns="http://www.w3.org/2000/svg" xmlns:xlink="http://www.w3.org/1999/xlink"><style type="text/css">
	.st0{fill:none;stroke:#c23616;stroke-width:4;stroke-linecap:round;stroke-miterlimit:10;}
	.st1{fill:none;stroke:#c23616;stroke-width:4;stroke-linecap:round;stroke-linejoin:round;stroke-miterlimit:10;}
	.st2{fill:none;stroke:#c23616;stroke-width:4;stroke-linejoin:round;stroke-miterlimit:10;}
	.st3{fill:none;stroke:#c23616;stroke-width:6;stroke-linecap:round;stroke-linejoin:round;stroke-miterlimit:10;}
	.st4{fill:#c23616;}
	.st5{fill:none;stroke:#c23616;stroke-width:3.8974;stroke-linejoin:round;stroke-miterlimit:10;}
	.st6{fill:none;stroke:#c23616;stroke-width:2;stroke-linecap:round;stroke-linejoin:round;stroke-miterlimit:10;}
	.st7{fill:#c23616;stroke:#c23616;stroke-width:2;stroke-miterlimit:10;}
	.st8{opacity:0.75;}
	.st9{fill:none;stroke:#c23616;stroke-width:2;stroke-linejoin:round;stroke-miterlimit:10;}
	.st10{fill:none;stroke:#c23616;stroke-width:6;stroke-linejoin:round;stroke-miterlimit:10;}
	.st11{fill:none;stroke:#c23616;stroke-width:3;stroke-linejoin:round;stroke-miterlimit:10;}
	.st12{fill:none;stroke:#c23616;stroke-width:3.9497;stroke-linejoin:round;stroke-miterlimit:10;}
	.st13{fill:none;stroke:#c23616;stroke-width:1.9008;stroke-linejoin:round;stroke-miterlimit:10;}
	.st14{fill:none;stroke:#c23616;stroke-width:1.9935;stroke-linejoin:round;stroke-miterlimit:10;}
	.st15{fill:none;stroke:#c23616;stroke-width:4;stroke-miterlimit:10;}
	.st16{fill:none;stroke:#c23616;stroke-width:1.9048;stroke-linecap:round;stroke-linejoin:round;stroke-miterlimit:10;}
	.st17{fill:none;stroke:#c23616;stroke-width:1.934;stroke-linecap:round;stroke-linejoin:round;stroke-miterlimit:10;}
	.st18{fill:none;stroke:#c23616;stroke-width:1.9684;stroke-linecap:round;stroke-linejoin:round;stroke-miterlimit:10;}
	.st19{fill:none;stroke:#c23616;stroke-width:1.9343;stroke-linecap:round;stroke-linejoin:round;stroke-miterlimit:10;}
</style><path class="st1" d="M61,66h14c1.7,0,3,1.3,3,3l0,0c0,1.7-1.3,3-3,3H21c-1.6,0-3-1.3-3-3l0,0c0-1.7,1.3-3,3-3h29"/><polygon class="st1" points="54.7,92 41.3,92 34,78 62,78 "/><path class="st1" d="M64,66h0.5c1.9,0,3.5-1.6,3.5-3.5V56H52c0,0-3,0.8-3-3c0-2.9,3-3,3-3h16v-5h-9c0,0-3,0-3-3c0-2.9,3-3,3-3h9  v-9.5c0-1.9-1.6-3.5-3.5-3.5h-33c-1.9,0-3.5,1.6-3.5,3.5v33c0,1.9,1.6,3.5,3.5,3.5H32"/><polygon class="st1" points="37.7,17 46.3,17 51,26 33,26 "/><g><path class="st2" d="M42,14c0,0,0-1.4,0-3s1.8-3,4-3h4c2.2,0,4-1.3,4-3s0-3,0-3"/></g></svg>