<svg xmlns="http://www.w3.org/2000/svg" fill="#f5f6fa" stroke="#f5f6fa" stroke-width=".5" viewBox="-191 222 82 80"><switch><g><path d="M-121.3 282.4l-12.1-7.2.3-21.9v-.1-.3-.1c0-.1-.1-.3-.2-.4s-.2-.2-.2-.3c0 0-.1 0-.1-.1-.1-.1-.2-.1-.3-.2h-.1l-18.8-11.2v-14c0-1-.8-1.8-1.7-1.8-1 0-1.7.8-1.8 1.7v14l-19.1 10.7h-.1c-.1.1-.2.1-.3.2 0 0-.1 0-.1.1l-.3.3c-.1.1-.1.3-.2.4v.5l-.3 22-12.1 6.8c-.8.5-1.1 1.5-.7 2.4.3.6.9.9 1.5.9.3 0 .6-.1.9-.2l12.2-6.8 18.7 11.1h.1c.1.1.2.1.3.1h.1c.1 0 .3.1.4.1.1 0 .3 0 .4-.1h.1c.1 0 .2-.1.3-.1h.1l19.1-10.7 12.1 7.2c.3.2.6.2.9.2.6 0 1.2-.3 1.5-.9.6-.7.3-1.8-.5-2.3zm-51.8-7.7l.2-18.9 16.2 9.6-.2 18.9-16.2-9.6zm18.5-31.1l16.2 9.6-16.4 9.2-16.2-9.6 16.4-9.2zm1.5 22l16.4-9.2-.2 18.9-16.4 9.2.2-18.9z"/></g></switch></svg>