<svg xmlns="http://www.w3.org/2000/svg" xmlns:xlink="http://www.w3.org/1999/xlink" x="0" y="0" enable-background="new 0 0 100 100" version="1.1" viewBox="0 0 100 100" xml:space="preserve"><g fill="#f5f6fa" stroke="#f5f6fa" stroke-width="2.5"><path d="M49.859,14.365c-0.111,0.028-0.196,0.056-0.252,0.084l-17.205,9.938h-0.028c-0.056,0.028-0.112,0.084-0.169,0.112 c-0.027,0.028-0.056,0.056-0.056,0.084c-0.028,0.028-0.028,0.028-0.056,0.056c-0.057,0.084-0.113,0.197-0.113,0.281 c-0.027,0.056-0.027,0.141-0.027,0.197v19.456l-16.812,9.714h-0.028c-0.057,0.027-0.112,0.056-0.169,0.112 c-0.028,0.027-0.028,0.056-0.056,0.084c-0.028,0-0.028,0.028-0.057,0.028c-0.057,0.112-0.084,0.196-0.112,0.309 c-0.028,0.056-0.028,0.112-0.028,0.168v19.905c0,0.28,0.169,0.562,0.394,0.702l17.12,9.854c0.028,0.028,0.028,0.028,0.057,0.057 l0.028,0.027c0.028,0,0.028,0,0.028,0h0.027c0.028,0.028,0.028,0.028,0.057,0.028c0,0,0,0,0.027,0c0,0.028,0.029,0.028,0.029,0.028 c0.027,0,0.027,0.028,0.027,0.028c0.028,0,0.057,0,0.057,0h0.027c0,0,0.029,0.027,0.057,0.027c0,0,0,0,0.028,0h0.028 c0.027,0,0.027,0,0.027,0c0.141,0,0.31-0.027,0.422-0.112c0.028,0,0.084-0.027,0.113-0.056L50,75.82l16.699,9.629 c0.027,0.028,0.056,0.028,0.084,0.057l0.028,0.027c0,0,0,0,0.028,0h0.027c0,0.028,0.028,0.028,0.028,0.028c0.028,0,0.028,0,0.028,0 c0.028,0.028,0.028,0.028,0.056,0.028l0.028,0.028c0,0,0.028,0,0.057,0l0,0c0.028,0,0.056,0.027,0.056,0.027 c0.028,0,0.028,0,0.028,0c0.028,0,0.028,0,0.057,0c0,0,0,0,0.028,0c0.14,0,0.28-0.027,0.421-0.112c0.028,0,0.057-0.027,0.085-0.056 l17.176-9.882c0.226-0.141,0.394-0.422,0.394-0.702V55.101c0-0.056,0-0.084,0-0.112c0,0,0-0.027,0-0.056c0,0,0,0,0-0.028v-0.028 c-0.027-0.112-0.056-0.225-0.141-0.337c0,0,0-0.027-0.027-0.056l0,0c-0.028-0.028-0.028-0.028-0.028-0.028 c-0.057-0.084-0.141-0.141-0.197-0.168l-16.867-9.714V25.202c0-0.028,0-0.056,0-0.084c0-0.028,0-0.056,0-0.056v-0.028 c0-0.028,0-0.028,0-0.056c-0.027-0.112-0.056-0.225-0.141-0.309c0-0.028,0-0.028,0-0.056c-0.027,0-0.027-0.028-0.027-0.028 c-0.028,0-0.028-0.028-0.028-0.028c-0.057-0.056-0.141-0.112-0.197-0.168l-17.261-9.938C50.225,14.365,50.028,14.337,49.859,14.365 L49.859,14.365z M50,16.049l15.658,9.04l-11.75,6.794L50,34.157l-15.658-9.04L50,16.049L50,16.049z M33.527,26.465l15.686,9.068 v18.052l-7.084-4.07l-8.602-4.97V26.465L33.527,26.465z M66.474,26.465v18.08l-15.687,9.068v-18.08L66.474,26.465L66.474,26.465z M32.74,45.92l7.898,4.577l7.76,4.464l-11.752,6.794l-3.906,2.273l-3.908-2.273l-11.751-6.794L32.74,45.92L32.74,45.92z M67.261,45.92l15.658,9.041l-11.75,6.794l-3.908,2.273l-3.936-2.273l-11.751-6.794l9.755-5.615L67.261,45.92L67.261,45.92z M16.266,56.364l15.688,9.04v18.08l-15.688-9.068V56.364L16.266,56.364z M49.213,56.364v18.052l-15.686,9.068v-18.08L49.213,56.364 L49.213,56.364z M50.787,56.364l15.687,9.04v18.08l-15.687-9.068V56.364L50.787,56.364z M83.706,56.364v18.052l-15.658,9.068 v-18.08L83.706,56.364L83.706,56.364z"/></g></svg>