<svg xmlns="http://www.w3.org/2000/svg" xmlns:xlink="http://www.w3.org/1999/xlink" x="0" y="0" fill="#f5f6fa" enable-background="new 0 0 64 64" version="1.1" viewBox="0 0 64 64" xml:space="preserve"><g><path d="M55,32c0-0.366-0.2-0.703-0.521-0.878L44,25.406V16c0-0.366-0.2-0.703-0.521-0.878l-11-6c-0.299-0.163-0.659-0.163-0.958,0 l-11,6C20.2,15.297,20,15.634,20,16v9.406L9.521,31.122C9.2,31.297,9,31.634,9,32v10c0,0.366,0.2,0.703,0.521,0.878l11,6 C20.67,48.959,20.835,49,21,49s0.33-0.041,0.479-0.122L32,43.139l10.521,5.739C42.67,48.959,42.835,49,43,49 s0.33-0.041,0.479-0.122l11-6C54.8,42.703,55,42.366,55,42V32z M43,36.861L34.088,32L43,27.139L51.912,32L43,36.861z M22,38.594 l9-4.909v7.722l-9,4.91V38.594z M22,17.685l9,4.909v7.722l-9-4.909V17.685z M33,22.594l9-4.909v7.722l-9,4.909V22.594z M32,11.139 L40.912,16L32,20.861L23.088,16L32,11.139z M21,27.139L29.912,32L21,36.861L12.088,32L21,27.139z M11,33.685l9,4.909v7.722l-9-4.91 V33.685z M33,33.685l9,4.909v7.722l-9-4.91V33.685z M44,46.316v-7.722l9-4.909v7.722L44,46.316z"/><path d="M32,60.882l-1.337-0.669l-0.895,1.789l1.785,0.893C31.693,62.965,31.847,63,32,63s0.307-0.035,0.447-0.105L34.236,62 l-0.895-1.789L32,60.882z"/><rect width="3.693" height="2" x="45.154" y="53.5" transform="matrix(0.8944 -0.4472 0.4472 0.8944 -19.4114 26.7728)"/><rect width="3.693" height="2" x="55.062" y="48.546" transform="matrix(0.8944 -0.4472 0.4472 0.8944 -16.1498 30.681)"/><rect width="3.693" height="2" x="35.246" y="58.454" transform="matrix(0.8944 -0.4472 0.4472 0.8944 -22.673 22.8647)"/><rect width="3.693" height="2" x="40.2" y="55.977" transform="matrix(0.8944 -0.4472 0.4472 0.8944 -21.042 24.8187)"/><rect width="3.693" height="2" x="50.108" y="51.023" transform="matrix(0.8944 -0.4472 0.4472 0.8944 -17.7804 28.7268)"/><path d="M61,46.382L59.764,47l0.895,1.789l1.789-0.895C62.786,47.725,63,47.379,63,47v-2h-2V46.382z"/><rect width="2" height="4" x="61" y="27"/><rect width="2" height="4" x="61" y="21"/><rect width="2" height="4" x="61" y="33"/><rect width="2" height="4" x="61" y="39"/><path d="M62.447,16.105l-1.785-0.893l-0.895,1.789L61,17.618V19h2v-2C63,16.621,62.786,16.275,62.447,16.105z"/><rect width="2" height="3.697" x="36.073" y="2.688" transform="matrix(0.4472 -0.8944 0.8944 0.4472 16.4359 35.6671)"/><rect width="2" height="3.697" x="45.992" y="7.647" transform="matrix(0.4474 -0.8943 0.8943 0.4474 17.4772 47.275)"/><rect width="2" height="3.696" x="41.033" y="5.168" transform="matrix(0.4472 -0.8945 0.8945 0.4472 16.9617 41.4754)"/><rect width="2" height="3.697" x="55.911" y="12.607" transform="matrix(0.4472 -0.8944 0.8944 0.4472 18.5301 58.8935)"/><rect width="2" height="3.696" x="50.951" y="10.128" transform="matrix(0.4472 -0.8945 0.8945 0.4472 18.009 53.0888)"/><path d="M32,3.118l1.337,0.669l0.895-1.789l-1.785-0.893c-0.281-0.141-0.613-0.141-0.895,0L29.764,2l0.895,1.789L32,3.118z"/><rect width="3.693" height="2" x="10.2" y="10.977" transform="matrix(0.8944 -0.4472 0.4472 0.8944 -4.0847 6.6516)"/><rect width="3.693" height="2" x="15.154" y="8.5" transform="matrix(0.8944 -0.4472 0.4472 0.8944 -2.4538 8.6056)"/><rect width="3.693" height="2" x="5.245" y="13.454" transform="matrix(0.8944 -0.4472 0.4472 0.8944 -5.7156 4.6975)"/><rect width="3.693" height="2" x="20.108" y="6.023" transform="matrix(0.8944 -0.4472 0.4472 0.8944 -0.823 10.5596)"/><rect width="3.693" height="2" x="25.062" y="3.546" transform="matrix(0.8944 -0.4472 0.4472 0.8944 0.8078 12.5136)"/><path d="M1.553,16.105C1.214,16.275,1,16.621,1,17v2h2v-1.382L4.236,17l-0.895-1.789L1.553,16.105z"/><rect width="2" height="4" x="1" y="39"/><rect width="2" height="4" x="1" y="27"/><rect width="2" height="4" x="1" y="21"/><rect width="2" height="4" x="1" y="33"/><path d="M3,45H1v2c0,0.379,0.214,0.725,0.553,0.895l1.785,0.893l0.895-1.789L3,46.382V45z"/><rect width="2" height="3.696" x="20.967" y="55.136" transform="matrix(0.4473 -0.8944 0.8944 0.4473 -38.8242 51.1447)"/><rect width="2" height="3.698" x="6.089" y="47.696" transform="matrix(0.4473 -0.8944 0.8944 0.4473 -40.3946 33.7256)"/><rect width="2" height="3.698" x="25.927" y="57.615" transform="matrix(0.4474 -0.8943 0.8943 0.4474 -38.3006 56.9397)"/><rect width="2" height="3.696" x="16.007" y="52.656" transform="matrix(0.4473 -0.8944 0.8944 0.4473 -39.3476 45.3347)"/><rect width="2" height="3.697" x="11.049" y="50.175" transform="matrix(0.4472 -0.8944 0.8944 0.4472 -39.8709 39.5354)"/></g></svg>