<svg xmlns="http://www.w3.org/2000/svg" xmlns:xlink="http://www.w3.org/1999/xlink" x="0" y="0" fill="#f5f6fa" stroke="#f5f6fa" stroke-width="9" enable-background="new 0 0 512 512" version="1.1" viewBox="0 0 512 512" xml:space="preserve"><g><path d="M383.1,147H339v-41c0-14.9-12.1-27-27-27H200c-14.9,0-27,12.1-27,27v41h-44.1C103,147,82,168.6,82,194.5v102 c0,25.9,21,47.5,46.9,47.5H153v62c0,14.9,12.1,27,27,27h152c14.9,0,27-12.1,27-27v-62h24.1c25.9,0,46.9-21.6,46.9-47.5v-102 C430,168.6,409,147,383.1,147z M187,106c0-7.2,5.8-13,13-13h112c7.2,0,13,5.8,13,13v41H187V106z M345,406c0,7.2-5.8,13-13,13H180 c-7.2,0-13-5.8-13-13V275h178V406z M383.1,330H359v-62.4c0-3.9-3.1-6.6-7-6.6H160c-3.9,0-7,2.8-7,6.6V330h-24.1 c-18.2,0-32.9-15.3-32.9-33.5v-102c0-18.2,14.7-33.5,32.9-33.5H383c18.2,0,32.9,15.3,32.9,33.5v102h0.1 C416,314.7,401.3,330,383.1,330z"/><rect width="22" height="14" x="146" y="201"/></g></svg>