<svg xmlns="http://www.w3.org/2000/svg" fill="#f5f6fa" stroke="#f5f6fa" stroke-width=".22" viewBox="0 0 12.7 12.7"><path d="M6.35 1.058A5.296 5.296 0 0 0 1.059 6.35a5.297 5.297 0 0 0 5.293 5.293 5.296 5.296 0 0 0 5.29-5.293 5.295 5.295 0 0 0-5.29-5.29zm0 .53a4.758 4.758 0 0 1 4.763 4.761 4.759 4.759 0 0 1-4.762 4.764 4.76 4.76 0 0 1-4.764-4.764 4.759 4.759 0 0 1 4.764-4.762zM4.504 3.966a.265.265 0 0 0-.27.268v1.058a.265.265 0 0 0 .266.266h1.056a.265.265 0 1 0 0-.53h-.493a1.847 1.847 0 0 1 3.14 1.322 1.847 1.847 0 0 1-1.851 1.852 1.849 1.849 0 0 1-1.854-1.851.265.265 0 1 0-.527 0 2.384 2.384 0 0 0 2.38 2.38 2.384 2.384 0 0 0 2.382-2.38 2.384 2.384 0 0 0-2.381-2.38c-.596 0-1.158.225-1.588.612v-.35a.265.265 0 0 0-.26-.267z" color="#f5f6fa" font-family="sans-serif" font-weight="400" overflow="visible" solid-color="#f5f6fa" white-space="normal" style="line-height:normal;font-variant-ligatures:normal;font-variant-position:normal;font-variant-caps:normal;font-variant-numeric:normal;font-variant-alternates:normal;font-feature-settings:normal;text-indent:0;text-align:start;text-decoration-line:none;text-decoration-style:solid;text-decoration-color:#f5f6fa;text-transform:none;text-orientation:mixed;shape-padding:0;isolation:auto;mix-blend-mode:normal"/></svg>