<svg xmlns="http://www.w3.org/2000/svg" fill="#f5f6fa" stroke="#f5f6fa" stroke-width="2.5" data-name="Layer 1" viewBox="0 0 100 100"><path d="M92 35.5l-8.7-14.7a3.8 3.8 0 0 0-5.2-1.5l-8.7 4a37.1 37.1 0 0 0-6-3.4l-.8-9.8V10a4.1 4.1 0 0 0-4-3.4h-17a4 4 0 0 0-4 3.7l-1 9.7a33.5 33.5 0 0 0-5.8 3.4l-8.8-4a4 4 0 0 0-5.2 1.6L8.3 35.5a4.1 4.1 0 0 0 1.2 5.4l8 5.7a23.7 23.7 0 0 0 0 6.8L9 59.1a4.1 4.1 0 0 0-1.1 5.4l8.5 14.7a4.1 4.1 0 0 0 2.3 1.8 3.7 3.7 0 0 0 3-.3l8.8-4a37 37 0 0 0 5.8 3.4l1 9.7v.2a4.1 4.1 0 0 0 3.9 3.4h17a4 4 0 0 0 4-3.6l1-9.7a33.5 33.5 0 0 0 5.8-3.4l8.8 4h.1a4 4 0 0 0 5.1-1.6l8.5-14.6a4.1 4.1 0 0 0-1.1-5.4L83 53.5a23.9 23.9 0 0 0 0-7l8-5.6a4.1 4.1 0 0 0 1-5.4zm-3.4 2.2l-10 7 .2 1.2a28 28 0 0 1 .4 4.1 27.9 27.9 0 0 1-.3 4l-.2 1.2 9.3 7.1a.2.2 0 0 1 0 .2L79.6 77l-11-5-1 .8a29.3 29.3 0 0 1-7.2 4l-1 .5-1.2 12h-17l-1-12-1.1-.5a33.7 33.7 0 0 1-7.1-4.1l-1-.7-11 5-8.5-14.6v-.1l9.3-6.4 1-.7-.2-1.2a27.8 27.8 0 0 1-.3-4.1 27.9 27.9 0 0 1 .3-4l.2-1.3-9.9-7a.2.2 0 0 1 0-.2L20.3 23l11 5 1-.7a29.2 29.2 0 0 1 7.1-4l1.1-.6 1.1-12h17a.3.3 0 0 1 .1.1l1.1 12 1.1.4a33.7 33.7 0 0 1 7.1 4.2l1 .7 11-5 8.8 14.6a.3.3 0 0 1-.2 0z"/><path d="M50 34.8A15.2 15.2 0 1 0 65.2 50 15 15 0 0 0 50 34.8zm0 26.4A11.2 11.2 0 1 1 61.2 50 11 11 0 0 1 50 61.2z"/></svg>