<svg xmlns="http://www.w3.org/2000/svg" viewBox="0 0 512 512"><g fill="#f5f6fa"><path d="M506 326.4c3.1-5.8 6-14.6 3.1-24.1s-9.7-15.5-14.6-18.8a43.6 43.6 0 00-7.2-19.2 40.8 40.8 0 00-19.4-13.9c-8-6.1-15.5-8.1-22.1-5.8-17.5 6.1-16.2 25.7-15.2 41.5 1.3 19 1.2 30.9-9.8 35.3-4.4 1.7-10.2.2-16-4.1a26.2 26.2 0 01-6.7-33c16.4-31.3 36.7-70.3 36.7-107.6 0-46.4-19.4-89.8-54.5-122a183.7 183.7 0 00-248.6 0 164.5 164.5 0 00-54.5 122c0 37.4 20.3 76.3 36.6 107.7 6 11.4 3.1 25.6-6.7 33-5.8 4.4-11.6 5.9-16 4.1-7.3-2.9-11.7-6.8-9.8-35.3 1-15.8 2.3-35.4-15.2-41.5-6.6-2.3-14.1-.3-22.1 5.8a40.8 40.8 0 00-19.4 13.9 45 45 0 00-7.2 19.2c-4.9 3.3-11.7 9.4-14.6 18.8s0 18.3 3 24.1a31.5 31.5 0 00-4.6 24.8 32.6 32.6 0 0013.9 18.6 32.7 32.7 0 0030.9 36 25 25 0 0015.6 15.6c3.5 1.3 7.1 1.9 10.9 1.9-14.7 8.5-27.8 17.2-27.8 34.9 0 12.9 7.1 23.6 20 30.1l4.2 1.9a32 32 0 0028 16.1c8.9 0 17.5-2.9 24.5-8.4a49.5 49.5 0 0026.9 3.1 45.8 45.8 0 0026.3-14.1c7.7 2.6 19.6 4 33.2-3.5a45.1 45.1 0 0019.8-20.5l.7-1.6a41.4 41.4 0 0027.7-10.3 41.5 41.5 0 0027.8 10.3l.7 1.6a45.6 45.6 0 0019.8 20.5 40.3 40.3 0 0033.2 3.5 45.2 45.2 0 0026.2 14.1c9.1 1.5 18.4.4 26.9-3.1 7 5.5 15.7 8.4 24.6 8.3 11.5.1 22.2-6 28.1-16q2.2-.9 4.1-1.9c12.9-6.5 20-17.2 20-30.1 0-17.8-13.1-26.4-27.8-34.9 3.7 0 7.4-.7 10.9-1.9a24.8 24.8 0 0015.5-15.6 32.3 32.3 0 0030.7-36.1 32.2 32.2 0 0013.9-18.6c2.7-10.1-1-19-4.6-24.8zm-58.7 132c0 3.6-1 8.2-9 12.3a73.2 73.2 0 01-31.8 5.7c-3.8 0-7.8-.2-11.9-.5l-.9-.2a215 215 0 01-51.1-11l-.8-.1a182.3 182.3 0 01-42.9-21.1 8.5 8.5 0 00-1.7-1.6c-.6-.5-1.3-.8-2-1.1-17.6-13-29.2-29-29.2-46.8a10 10 0 00-10-10 10 10 0 00-10 10c0 18.1-12 34.3-30 47.4a3 3 0 00-1.1.6l-1.1.9a185 185 0 01-44.1 21.8l-.3.1a213.3 213.3 0 01-48.4 10.7h-2.8l-1.6.4c-3.8.3-7.6.4-11.2.4-13.5 0-24.5-2-31.8-5.7-8-4-9-8.7-9-12.3 0-6.7 5.7-10.6 20.7-19.3 19.8-11.4 47-27.1 64.5-67.4a9.7 9.7 0 00-5.1-13c-5-2.2-10.9.1-13.2 5.1-7 16.1-15.8 27.5-25 36.2-4.6-.2-26-1.8-45.4-13.4l-.2-.2A66.7 66.7 0 0136.1 361l-.2-.5a93 93 0 01-4.4-10.3c-10.1-31 5.5-59.4 10.6-67.4a49 49 0 0118.1-18.9c2.4 2.3 1.7 13.4 1.2 20.9-.6 9.3-1.3 19.8.9 29.4A34.1 34.1 0 0083.7 340c11 4.4 23.9 1.9 35.4-6.7a46.5 46.5 0 0012.4-58.2c-15.3-29.4-34.4-65.9-34.4-98.4 0-40.8 17-78.9 48-107.3a164 164 0 01221.7 0c31 28.4 48 66.5 48 107.3 0 32.5-19.1 69-34.4 98.4-10.4 20-5.1 45 12.4 58.2 11.5 8.7 24.4 11.1 35.4 6.7a34.4 34.4 0 0021.5-25.8c2.2-9.6 1.5-20.1.9-29.4-.5-7.5-1.2-18.6 1.2-20.9 2.8 1 10.3 6.3 18.2 18.8 5 8 20.6 36.4 10.6 67.4a74.7 74.7 0 01-3.9 9.2l-.6 1.1-.2.5a64.5 64.5 0 01-22.3 24.1c-.9.3-1.6.8-2.4 1.3l-.5.4a89.3 89.3 0 01-13.2 6.4 107 107 0 01-32 6.8c-9.2-8.7-18-20.1-25-36.2-2.3-5-8.2-7.3-13.2-5.1a10 10 0 00-5.2 13.1c17.5 40.3 44.7 55.9 64.5 67.4 15.1 8.6 20.8 12.5 20.8 19.3z"/><path d="M218.4 160.5a10 10 0 00-10 10 11.5 11.5 0 11-23 0 10 10 0 10-20 0 31.5 31.5 0 1063 0 10 10 0 00-10-10zM337.9 160.5a10 10 0 00-10 10 11.5 11.5 0 01-23 0 10 10 0 10-20 0 31.5 31.5 0 0063 0 10 10 0 00-10-10zM256.9 202.8a35.6 35.6 0 1035.6 35.6 35.7 35.7 0 00-35.6-35.6z"/></g></svg>