<svg xmlns="http://www.w3.org/2000/svg" viewBox="0 0 100 100"><switch><g fill="#f5f6fa"><path d="M24.9 24a5 5 0 00-7.1 0L4 37.9A5 5 0 004 45a5 5 0 007.1 0l5.4-5.4v32.8c0 2.8 2.2 5 5 5s5-2.2 5-5V39.6l5.4 5.4a5 5 0 003.5 1.5c1.3 0 2.6-.5 3.5-1.5 2-2 2-5.1 0-7.1L24.9 24zM92.5 67.4H53.2c-2.8 0-5 2.2-5 5s2.2 5 5 5h39.3c2.8 0 5-2.2 5-5s-2.2-5-5-5zM53.2 55h29.3c2.8 0 5-2.2 5-5s-2.2-5-5-5H53.2c-2.8 0-5 2.2-5 5s2.2 5 5 5zM53.2 32.6h19.4c2.8 0 5-2.2 5-5s-2.2-5-5-5H53.2c-2.8 0-5 2.2-5 5s2.2 5 5 5z"/></g></switch></svg>