<svg xmlns="http://www.w3.org/2000/svg" fill="#f5f6fa" viewBox="0 0 36 56"><path fill-rule="evenodd" d="M14 56a14 14 0 0 0 10.1-23.69c-.9-.94-2.1-1.78-2.1-1.78V8A8 8 0 0 0 6 8v22.38C2.3 33.06 0 37.33 0 42a14 14 0 0 0 14 14zm9-14a9 9 0 1 1-12-8.49V9a3 3 0 0 1 6 0v24.51A9 9 0 0 1 23 42zm12-13a1 1 0 0 0 1-1v-2a1 1 0 0 0-1-1h-8a1 1 0 0 0-1 1v2a1 1 0 0 0 1 1h8zm0-20a1 1 0 0 0 1-1V6a1 1 0 0 0-1-1h-8a1 1 0 0 0-1 1v2a1 1 0 0 0 1 1h8zm-4 10a1 1 0 0 0 1-1v-2a1 1 0 0 0-1-1h-4a1 1 0 0 0-1 1v2a1 1 0 0 0 1 1h4z"/></svg>